<svg xmlns="http://www.w3.org/2000/svg" xmlns:xlink="http://www.w3.org/1999/xlink" width="272.879" height="104.143" viewBox="0 0 204.659 78.107"><clipPath id="a"><path transform="matrix(1 0 0 -1 -71.186 351.044)" d="M0 0h612v792H0z"/></clipPath><g clip-path="url(#a)"><path stroke-width=".7981955000000001" stroke-miterlimit="10" fill="none" stroke="#000" d="M2.882 5.588h198.057"/><symbol id="b"><path d="M.219.286H0V.22h.219V0h.066v.22h.219v.066H.285v.22H.219v-.22z"/></symbol><symbol id="c"><path d="M0 .398a.067.067 0 0 0 .027.004C.055.402.064.387.064.338V.09C.064.033.053.019.002.015V0h.212v.015C.163.019.148.031.148.067v.281c.048.045.07.057.103.057C.3.405.324.374.324.308V.099C.324.036.311.019.261.015V0h.208v.015C.42.02.408.032.408.081V.31C.408.404.364.46.29.46.244.46.213.443.145.379v.079L.138.46A1.866 1.866 0 0 0 0 .415V.398z"/></symbol><symbol id="d"><path d="M.003.398a.127.127 0 0 0 .032.004C.061.402.07.386.07.338V.085C.07.031.056.016 0 .015V0h.222v.015C.169.017.154.028.154.067v.282c0 .002.008.012.015.019.025.023.068.04.103.04.044 0 .066-.035.066-.105V.086C.338.03.327.019.27.015V0h.224v.015C.437.016.422.033.422.095v.252c.03.043.063.061.109.061.057 0 .075-.027.075-.11V.087C.606.03.598.022.54.015V0h.219v.015L.733.017C.703.019.69.037.69.076v.206C.69.4.651.46.574.46.516.46.465.434.411.376.393.433.359.46.305.46.261.46.233.446.15.383v.075L.143.46a1.433 1.433 0 0 0-.14-.045V.398z"/></symbol><symbol id="e"><path d="M.327.69C.136.69 0 .546 0 .345 0 .251.032.16.086.102A.327.327 0 0 1 .321 0c.197 0 .333.14.333.341A.354.354 0 0 1 .57.585.32.32 0 0 1 .327.69m0-.036a.194.194 0 0 0 .128-.05C.509.555.54.461.54.342a.537.537 0 0 0-.033-.18.204.204 0 0 0-.049-.073.191.191 0 0 0-.259-.004C.147.131.114.232.114.343c0 .102.028.199.07.246a.188.188 0 0 0 .143.065z"/></symbol><symbol id="f"><path d="M.088.109C.088.037.076.024 0 .019V0h.284C.4 0 .505.033.567.089a.328.328 0 0 1 .102.245c0 .09-.03.168-.085.223C.516.626.407.662.27.662H0V.643C.079.636.088.627.088.553V.109M.19.586c0 .031.011.039.052.039a.337.337 0 0 0 .199-.05A.286.286 0 0 0 .56.327C.56.209.519.125.438.078A.376.376 0 0 0 .242.037C.202.037.19.046.19.078v.508z"/></symbol><symbol id="g"><path d="M.585.169H.557C.507.061.464.037.321.037H.294C.245.037.203.042.196.049.191.052.189.063.189.08v.247h.154C.425.327.44.314.453.231h.023v.232H.453C.446.422.442.407.431.393.418.376.39.368.343.368H.189V.59c0 .028.006.034.033.034h.135C.47.624.492.609.509.519h.025L.531.662H0V.643C.074.637.087.623.087.553V.109C.087.039.073.024 0 .019V0h.54l.045.169z"/></symbol><use xlink:href="#b" transform="matrix(7.98205 0 0 -7.98205 3.121 17.078)"/><use xlink:href="#c" transform="matrix(7.98205 0 0 -7.98205 10.305 17.078)"/><use xlink:href="#d" transform="matrix(7.98205 0 0 -7.98205 14.296 17.078)"/><use xlink:href="#e" transform="matrix(7.98205 0 0 -7.98205 20.65 17.19)"/><use xlink:href="#f" transform="matrix(7.98205 0 0 -7.98205 26.27 17.078)"/><use xlink:href="#g" transform="matrix(7.98205 0 0 -7.98205 32 17.078)"/><symbol id="h"><path d="M.466.187H.429C.427.173.417.107.402.096.395.09.314.09.3.09H.113l.128.104c.034.027.123.091.154.121.03.03.071.081.071.152 0 .125-.113.198-.247.198C.09.665 0 .58 0 .486 0 .435.043.429.054.429c.025 0 .054.018.054.054 0 .022-.013.054-.057.054.023.051.084.089.153.089A.154.154 0 0 0 .365.467C.365.396.318.323.248.259L.011.042C.001.032 0 .031 0 0h.435l.031.187z"/></symbol><use xlink:href="#h" transform="matrix(5.98657 0 0 -5.98657 37.213 14.26)"/><symbol id="i"><path d="M.561.174A.3.3 0 0 0 .515.096C.48.057.425.039.342.039H.275C.202.039.189.045.189.08v.473c0 .071.014.085.093.09v.019H0V.643C.074.637.087.623.087.553V.109C.087.039.073.024 0 .019V0h.538l.048.174H.561z"/></symbol><symbol id="j"><path d="M.927.673H.729V.654C.78.649.798.638.798.611A.235.235 0 0 0 .782.536L.657.197.525.538l-.012.03a.158.158 0 0 0-.015.051c0 .024.023.034.077.035v.019H.308V.654C.365.653.375.644.409.564L.442.482.335.2.191.576A.142.142 0 0 0 .18.622c0 .022.014.029.065.032v.019H0V.654C.051.649.066.631.103.537L.296 0h.015l.154.423L.625 0H.64c.085.261.095.289.204.583.019.052.03.061.083.071v.019z"/></symbol><symbol id="k"><path d="M.467.231v.232H.444C.432.383.414.368.334.368H.189V.59c0 .028.005.034.032.034h.136C.47.624.492.609.509.519h.025L.531.662H0V.643C.074.637.087.623.087.553V.12C.087.037.076.024 0 .019V0h.28v.019C.203.023.189.037.189.109v.218h.145c.081 0 .098-.015.11-.096h.023z"/></symbol><symbol id="l"><path d="M.691.019C.646.022.636.032.601.106L.352.674h-.02L.124.183C.06.037.048.021 0 .019V0h.198v.019C.15.019.13.032.13.06c0 .012.003.026.008.039l.046.117h.262L.487.12A.198.198 0 0 0 .506.053C.506.028.489.02.436.019V0h.255v.019m-.49.238.115.275.116-.275H.201z"/></symbol><symbol id="m"><path d="M.237.62v-.5C.237.035.226.024.143.019V0h.292v.019C.353.023.339.036.339.109V.62h.054C.507.62.529.602.552.492h.024L.57.662H.006L0 .492h.024C.048.601.071.62.183.62h.054z"/></symbol><symbol id="n"><path d="M.662.573V.12C.662.037.65.024.571.019V0h.28v.019C.778.024.764.038.764.109v.444c0 .071.013.084.087.09v.019H.652L.431.157.2.662H.002V.643C.084.638.097.626.097.553V.147C.097.044.083.025 0 .019V0h.235v.019C.158.023.141.046.141.147V.55L.392 0h.014l.256.573z"/></symbol><symbol id="o"><path d="M.186.291A.796.796 0 0 1 .255.288.35.35 0 0 1 .43.322a.18.18 0 0 1 .096.159c0 .042-.014.08-.041.109C.445.634.358.662.264.662H0V.643C.074.635.084.625.084.553V.12C.084.036.076.026 0 .019V0h.28v.019C.201.022.186.036.186.109v.182m0 .3c0 .027.007.034.034.034.135 0 .197-.047.197-.15C.417.378.358.328.243.328a.59.59 0 0 0-.057.003v.26z"/></symbol><symbol id="p"><path d="M.642.019C.604.022.584.032.555.066L.349.319c.067.013.097.025.13.052A.147.147 0 0 1 .53.486c0 .043-.013.08-.039.109C.453.636.37.662.276.662H0V.643C.075.635.085.624.085.553V.12C.085.037.075.025 0 .019V0h.277v.019C.2.024.187.037.187.109v.197l.056.002L.481 0h.161v.019m-.455.57c0 .028.011.036.051.036.125 0 .183-.043.183-.137C.421.438.4.396.364.377.318.351.283.345.187.343v.246z"/></symbol><symbol id="q"><path d="M.383.174C.335.098.292.069.228.069c-.057 0-.1.029-.129.086a.299.299 0 0 0-.027.132H.38C.372.352.362.381.337.413A.164.164 0 0 1 .209.47.2.2 0 0 1 .074.418C.027.377 0 .306 0 .224 0 .086.072 0 .187 0c.095 0 .17.059.212.167L.383.174M.074.319C.085.397.119.434.18.434S.265.406.278.319H.074z"/></symbol><symbol id="r"><path d="M.373.166C.325.096.289.072.232.072c-.091 0-.155.08-.155.195 0 .103.055.174.136.174C.249.441.262.43.272.393L.278.371C.286.343.304.325.325.325c.026 0 .048.019.048.042C.373.423.303.47.219.47.17.47.119.45.078.414A.249.249 0 0 1 0 .223C0 .093.079 0 .19 0a.18.18 0 0 1 .121.047.335.335 0 0 1 .076.11L.373.166z"/></symbol><symbol id="s"><path d="M.405.076C.388.062.376.057.361.057c-.023 0-.03.014-.03.058V.31c0 .052-.005.081-.02.105C.289.451.246.47.187.47.093.47.019.421.019.358c0-.023.02-.043.043-.043.024 0 .045.02.045.042L.105.373a.112.112 0 0 0-.003.024c0 .027.032.049.072.049C.223.446.25.417.25.363V.302C.096.24.079.232.036.194A.121.121 0 0 1 0 .107C0 .044.044 0 .105 0 .149 0 .19.021.251.073.256.021.274 0 .315 0c.034 0 .055.012.09.05v.026M.25.133C.25.102.245.093.224.081A.158.158 0 0 0 .151.058C.116.058.088.092.088.135v.004c0 .059.041.095.162.139V.133z"/></symbol><symbol id="t"><path d="M0 .623h.006a.398.398 0 0 0 .031.002C.069.625.079.611.079.564V.087C.079.033.065.02.002.015V0h.236v.015C.175.019.163.029.163.084v.597L.159.683A1.99 1.99 0 0 0 0 .639V.623z"/></symbol><use xlink:href="#b" transform="matrix(7.98205 0 0 -7.98205 53.151 17.078)"/><use xlink:href="#i" transform="matrix(7.98205 0 0 -7.98205 60.303 17.078)"/><use xlink:href="#j" transform="matrix(7.98205 0 0 -7.98205 64.534 17.165)"/><use xlink:href="#k" transform="matrix(7.98205 0 0 -7.98205 72.125 17.078)"/><use xlink:href="#k" transform="matrix(7.98205 0 0 -7.98205 76.563 17.078)"/><use xlink:href="#b" transform="matrix(7.98205 0 0 -7.98205 93.118 17.078)"/><use xlink:href="#l" transform="matrix(7.98205 0 0 -7.98205 100.293 17.078)"/><use xlink:href="#l" transform="matrix(7.98205 0 0 -7.98205 106.056 17.078)"/><use xlink:href="#m" transform="matrix(7.98205 0 0 -7.98205 110.95 17.078)"/><use xlink:href="#n" transform="matrix(7.98205 0 0 -7.98205 115.787 17.078)"/><use xlink:href="#d" transform="matrix(7.98205 0 0 -7.98205 143.588 17.078)"/><use xlink:href="#l" transform="matrix(7.98205 0 0 -7.98205 149.79 17.078)"/><use xlink:href="#o" transform="matrix(7.98205 0 0 -7.98205 155.561 17.078)"/><use xlink:href="#p" transform="matrix(7.98205 0 0 -7.98205 180.68 17.078)"/><use xlink:href="#q" transform="matrix(7.98205 0 0 -7.98205 186.069 17.157)"/><use xlink:href="#r" transform="matrix(7.98205 0 0 -7.98205 189.613 17.157)"/><use xlink:href="#s" transform="matrix(7.98205 0 0 -7.98205 193.252 17.157)"/><use xlink:href="#t" transform="matrix(7.98205 0 0 -7.98205 196.653 17.078)"/><use xlink:href="#t" transform="matrix(7.98205 0 0 -7.98205 198.872 17.078)"/><path stroke-width=".49874700000000005" stroke-miterlimit="10" fill="none" stroke="#000" d="M2.882 22.625h198.057"/><symbol id="u"><path d="M0 .063V0h.246v.063H0z"/></symbol><symbol id="v"><path d="M.234.385C.333.438.368.48.368.548.368.63.296.69.196.69.087.69.006.623.006.532.006.467.025.438.13.346.022.264 0 .233 0 .165 0 .068.079 0 .192 0c.12 0 .197.066.197.169 0 .077-.034.126-.155.216M.216.282C.289.23.313.194.313.138a.105.105 0 0 0-.11-.11C.127.028.076.086.076.173c0 .064.022.106.08.153l.06-.044M.205.403C.116.461.08.507.08.563c0 .058.045.099.108.099.068 0 .111-.044.111-.113C.299.492.271.447.214.409L.205.403z"/></symbol><symbol id="w"><path d="M.46.231H.358v.445H.314L0 .231V.167h.281V0h.077v.167H.46v.064m-.18 0H.04l.24.343V.231z"/></symbol><symbol id="x"><path d="M.055.111A.057.057 0 0 1 0 .054C0 .025.025 0 .054 0c.031 0 .057.025.057.054a.057.057 0 0 1-.056.057z"/></symbol><symbol id="y"><path d="M.445.137.432.142C.395.085.382.076.337.076H.098l.168.176c.089.093.128.169.128.247 0 .1-.081.177-.185.177A.195.195 0 0 1 .065.614C.033.58.018.548.001.477L.022.472c.04.098.076.13.145.13A.134.134 0 0 0 .308.461C.308.383.262.29.178.201L0 .012V0h.39l.055.137z"/></symbol><symbol id="z"><path d="M.23.69A.183.183 0 0 1 .096.638C.038.582 0 .467 0 .35 0 .241.033.124.08.068A.186.186 0 0 1 .226 0c.051 0 .094.017.13.052.058.055.096.171.096.292C.452.549.361.69.23.69M.227.664C.311.664.356.551.356.342.356.133.312.026.226.026c-.086 0-.13.107-.13.315 0 .212.045.323.131.323z"/></symbol><symbol id="A"><path d="M.029 0a.432.432 0 0 1 .235.081c.104.076.165.2.165.335 0 .165-.092.282-.221.282C.089.698 0 .597 0 .462 0 .34.072.259.18.259c.055 0 .097.016.15.057A.374.374 0 0 0 .026.02L.029 0m.303.377C.332.357.328.348.317.339A.157.157 0 0 0 .216.302C.14.302.092.377.092.496a.26.26 0 0 0 .037.143A.09.09 0 0 0 .2.67C.287.67.332.584.332.416V.377z"/></symbol><symbol id="B"><path d="M.412.698a.436.436 0 0 1-.245-.08A.387.387 0 0 1 0 .293C0 .206.027.118.07.068A.198.198 0 0 1 .224 0c.124 0 .21.095.21.233 0 .128-.073.209-.188.209C.202.442.181.435.118.397a.346.346 0 0 0 .296.285L.412.698M.208.396C.294.396.344.324.344.199.344.089.305.028.235.028.147.028.093.122.093.277c0 .051.008.079.028.094a.145.145 0 0 0 .087.025z"/></symbol><use xlink:href="#u" transform="matrix(7.98205 0 0 -7.98205 20.893 32.416)"/><use xlink:href="#u" transform="matrix(7.98205 0 0 -7.98205 65.888 32.416)"/><use xlink:href="#u" transform="matrix(7.98205 0 0 -7.98205 106.812 32.416)"/><use xlink:href="#v" transform="matrix(7.98205 0 0 -7.98205 145.126 34.077)"/><use xlink:href="#w" transform="matrix(7.98205 0 0 -7.98205 148.765 33.965)"/><use xlink:href="#x" transform="matrix(7.98205 0 0 -7.98205 153.22 34.053)"/><use xlink:href="#y" transform="matrix(7.98205 0 0 -7.98205 154.896 33.965)"/><use xlink:href="#z" transform="matrix(7.98205 0 0 -7.98205 181.955 34.077)"/><use xlink:href="#x" transform="matrix(7.98205 0 0 -7.98205 186.313 34.053)"/><use xlink:href="#A" transform="matrix(7.98205 0 0 -7.98205 187.99 34.14)"/><use xlink:href="#B" transform="matrix(7.98205 0 0 -7.98205 192.012 34.077)"/><use xlink:href="#v" transform="matrix(7.98205 0 0 -7.98205 196.179 34.077)"/><symbol id="C"><path d="M.338.11.149.498C.144.509.14.514.132.514.128.514.126.513.116.506L.014.435C0 .426 0 .421 0 .418 0 .412.005.404.014.404c.004 0 .006 0 .018.01l.05.035.21-.431C.301 0 .305 0 .315 0c.017 0 .02.005.028.021l.483.937c.008.014.008.016.008.02 0 .012-.01.023-.023.023S.794.993.787.98L.338.11z"/></symbol><use xlink:href="#C" transform="matrix(7.98205 0 0 -7.98205 18.968 47.634)"/><symbol id="D"><path d="M.149.597h.196c.016 0 .02.002.023.009l.038.089-.009.007C.382.681.372.676.351.676H.142L.033.439.032.434c0-.005.004-.008.012-.008a.39.39 0 0 0 .113-.02C.272.369.325.307.325.208.325.112.264.037.186.037c-.02 0-.037.007-.067.029C.087.089.064.099.043.099.014.099 0 .087 0 .062 0 .024.047 0 .122 0c.084 0 .156.027.206.078a.233.233 0 0 1 .067.178.212.212 0 0 1-.069.168C.282.468.225.491.107.512l.042.085z"/></symbol><symbol id="E"><path d="M.247.853a.506.506 0 0 1-.141-.12A.464.464 0 0 1 0 .429C0 .302.037.204.125.102A.428.428 0 0 1 .244 0l.012.016C.176.079.148.114.121.189a.706.706 0 0 0-.035.243c0 .105.013.187.04.249a.382.382 0 0 0 .13.156L.247.853z"/></symbol><symbol id="F"><path d="M.009 0A.506.506 0 0 1 .15.12a.464.464 0 0 1 .106.304.464.464 0 0 1-.125.327.428.428 0 0 1-.119.102L0 .837A.339.339 0 0 0 .135.664.706.706 0 0 0 .17.421.626.626 0 0 0 .13.173.378.378 0 0 0 0 .016L.009 0z"/></symbol><use xlink:href="#u" transform="matrix(7.98205 0 0 -7.98205 65.891 44.09)"/><use xlink:href="#u" transform="matrix(7.98205 0 0 -7.98205 106.815 44.09)"/><use xlink:href="#v" transform="matrix(7.98205 0 0 -7.98205 135.231 45.75)"/><use xlink:href="#D" transform="matrix(7.98205 0 0 -7.98205 139.03 45.75)"/><use xlink:href="#x" transform="matrix(7.98205 0 0 -7.98205 143.325 45.726)"/><use xlink:href="#z" transform="matrix(7.98205 0 0 -7.98205 144.953 45.75)"/><use xlink:href="#E" transform="matrix(7.98205 0 0 -7.98205 149.136 47.051)"/><use xlink:href="#b" transform="matrix(7.98205 0 0 -7.98205 151.65 45.638)"/><use xlink:href="#z" transform="matrix(7.98205 0 0 -7.98205 156.104 45.75)"/><use xlink:href="#x" transform="matrix(7.98205 0 0 -7.98205 160.463 45.726)"/><use xlink:href="#v" transform="matrix(7.98205 0 0 -7.98205 162.346 45.75)"/><use xlink:href="#F" transform="matrix(7.98205 0 0 -7.98205 166.122 47.051)"/><use xlink:href="#z" transform="matrix(7.98205 0 0 -7.98205 181.95 45.75)"/><use xlink:href="#x" transform="matrix(7.98205 0 0 -7.98205 186.309 45.726)"/><use xlink:href="#A" transform="matrix(7.98205 0 0 -7.98205 187.985 45.814)"/><use xlink:href="#B" transform="matrix(7.98205 0 0 -7.98205 192.008 45.75)"/><use xlink:href="#A" transform="matrix(7.98205 0 0 -7.98205 195.967 45.814)"/><use xlink:href="#C" transform="matrix(7.98205 0 0 -7.98205 18.968 59.307)"/><use xlink:href="#C" transform="matrix(7.98205 0 0 -7.98205 63.963 59.307)"/><symbol id="G"><path d="M.11.344A.287.287 0 0 0 .216.333.152.152 0 0 0 .317.185C.317.101.26.036.186.036.159.036.139.043.102.067.072.085.055.092.038.092.015.092 0 .078 0 .057 0 .022.043 0 .113 0 .19 0 .269.026.316.067a.215.215 0 0 1 .073.166.19.19 0 0 1-.045.129.208.208 0 0 1-.083.053C.33.462.355.499.355.553.355.634.291.69.199.69a.191.191 0 0 1-.13-.049C.039.614.024.588.002.528L.017.524C.058.597.103.63.166.63c.065 0 .11-.044.11-.107a.14.14 0 0 0-.04-.097A.29.29 0 0 0 .11.357V.344z"/></symbol><symbol id="H"><path d="M.18.676 0 .585V.571l.027.011a.144.144 0 0 0 .045.011c.021 0 .03-.015.03-.047V.093C.102.06.094.037.078.028.063.019.049.016.007.015V0h.276v.015C.204.016.188.026.188.074v.6L.18.676z"/></symbol><symbol id="I"><path d="M.429.67h-.37L0 .523.017.515C.06.583.078.596.133.596H.35L.152 0h.065l.212.654V.67z"/></symbol><use xlink:href="#u" transform="matrix(7.98205 0 0 -7.98205 106.816 55.763)"/><use xlink:href="#v" transform="matrix(7.98205 0 0 -7.98205 135.232 57.423)"/><use xlink:href="#D" transform="matrix(7.98205 0 0 -7.98205 139.031 57.423)"/><use xlink:href="#x" transform="matrix(7.98205 0 0 -7.98205 143.325 57.4)"/><use xlink:href="#G" transform="matrix(7.98205 0 0 -7.98205 145.105 57.423)"/><use xlink:href="#E" transform="matrix(7.98205 0 0 -7.98205 149.136 58.725)"/><use xlink:href="#b" transform="matrix(7.98205 0 0 -7.98205 151.65 57.312)"/><use xlink:href="#H" transform="matrix(7.98205 0 0 -7.98205 156.8 57.312)"/><use xlink:href="#x" transform="matrix(7.98205 0 0 -7.98205 160.463 57.4)"/><use xlink:href="#H" transform="matrix(7.98205 0 0 -7.98205 162.786 57.312)"/><use xlink:href="#F" transform="matrix(7.98205 0 0 -7.98205 166.122 58.725)"/><use xlink:href="#z" transform="matrix(7.98205 0 0 -7.98205 181.95 57.423)"/><use xlink:href="#x" transform="matrix(7.98205 0 0 -7.98205 186.309 57.4)"/><use xlink:href="#A" transform="matrix(7.98205 0 0 -7.98205 187.985 57.487)"/><use xlink:href="#I" transform="matrix(7.98205 0 0 -7.98205 191.896 57.376)"/><use xlink:href="#H" transform="matrix(7.98205 0 0 -7.98205 196.614 57.312)"/><use xlink:href="#C" transform="matrix(7.98205 0 0 -7.98205 18.968 70.982)"/><use xlink:href="#C" transform="matrix(7.98205 0 0 -7.98205 63.963 70.982)"/><use xlink:href="#C" transform="matrix(7.98205 0 0 -7.98205 104.887 70.982)"/><symbol id="J"><path d="M.15.337A.24.24 0 0 1 .044.28.148.148 0 0 1 0 .17C0 .068.085 0 .212 0c.139 0 .232.08.232.2 0 .087-.043.149-.15.217C.39.451.43.492.43.556.43.645.354.701.235.701.1.701.011.631.011.526c0-.075.04-.13.139-.189m.12.098C.186.478.14.533.14.589c0 .047.036.083.083.083.056 0 .088-.045.088-.123C.311.502.303.479.27.435M.172.319C.281.246.305.214.305.14.305.073.272.032.218.032.157.032.121.085.121.174c0 .055.011.086.051.145z"/></symbol><symbol id="K"><path d="M.127.557h.278l.043.127H.126L.029.339a.734.734 0 0 0 .18-.027C.298.284.351.227.351.161c0-.056-.044-.1-.1-.1-.023 0-.05.012-.09.042C.118.135.088.148.062.148.026.148 0 .123 0 .088 0 .035.058 0 .147 0c.165 0 .282.1.282.241 0 .104-.064.184-.173.215a.633.633 0 0 1-.151.02l.022.081z"/></symbol><symbol id="L"><path d="M.084.169A.085.085 0 0 1 0 .085C0 .037.036 0 .083 0c.048 0 .086.037.086.083a.086.086 0 0 1-.085.086z"/></symbol><symbol id="M"><path d="M.26.862A.428.428 0 0 1 .131.767.495.495 0 0 1 .073.171.484.484 0 0 1 .26 0v.028a.233.233 0 0 0-.103.107.692.692 0 0 0-.044.291.77.77 0 0 0 .042.299C.176.769.2.795.26.835v.027z"/></symbol><symbol id="N"><path d="M.208.297H0V.209h.208V0h.088v.209h.208v.088H.296v.209H.208V.297z"/></symbol><symbol id="O"><path d="M.252.688 0 .579V.553a.114.114 0 0 1 .02.008c.027.01.052.017.065.017C.11.578.121.556.121.509V.124c0-.082-.02-.099-.119-.1V0h.375v.024C.286.026.269.041.269.118v.57H.252z"/></symbol><symbol id="P"><path d="M.042.537C.08.598.113.621.165.621c.063 0 .102-.04.102-.103C.267.452.232.417.137.387V.37A.368.368 0 0 0 .289.29.167.167 0 0 0 .338.168C.338.096.3.05.24.05.216.05.197.061.164.093.125.132.095.148.065.148.027.148 0 .124 0 .09 0 .036.061 0 .153 0 .32 0 .452.114.452.26a.192.192 0 0 1-.044.124.192.192 0 0 1-.078.054c.064.039.083.068.083.127C.413.651.352.702.25.702.151.702.076.652.021.549L.042.537z"/></symbol><symbol id="Q"><path d="M0 0a.41.41 0 0 1 .128.095A.49.49 0 0 1 0 .862V.834C.057.797.082.772.103.727A.695.695 0 0 0 .147.436.77.77 0 0 0 .105.137C.085.093.06.067 0 .027V0z"/></symbol><symbol id="R"><path d="M.226.701C.161.701.095.657.054.585A.51.51 0 0 1 0 .353C0 .147.094 0 .227 0c.129 0 .225.149.225.35 0 .2-.097.351-.226.351M.294.235A.727.727 0 0 0 .277.071C.266.042.25.028.227.028c-.05 0-.069.059-.069.207v.229c0 .151.019.209.067.209.049 0 .069-.062.069-.209V.235z"/></symbol><symbol id="S"><path d="M.005 0c.14.02.208.045.286.104a.377.377 0 0 1 .156.311c0 .173-.092.286-.232.286C.09.701 0 .602 0 .465 0 .347.073.267.182.267c.038 0 .064.005.091.019C.23.134.149.055.005.026V0m.278.341C.282.328.281.323.278.321A.089.089 0 0 0 .237.312C.175.312.152.371.152.528c0 .116.012.146.061.146A.054.054 0 0 0 .266.64.45.45 0 0 0 .291.471C.291.444.289.412.286.367L.283.341z"/></symbol><symbol id="T"><path d="M.46.676H.044L0 .454h.025c.019.064.043.085.098.085H.33L.13 0h.095L.46.676z"/></symbol><symbol id="U"><path d="M.461.211H.437C.408.139.396.133.294.133H.143l.162.154c.079.075.114.142.114.218a.177.177 0 0 1-.185.183.185.185 0 0 1-.133-.056.355.355 0 0 1-.087-.148h.028c.031.062.068.09.122.09A.11.11 0 0 0 .263.519a.156.156 0 0 0 .02-.072.29.29 0 0 0-.051-.148A1.806 1.806 0 0 0 0 .023V0h.416l.045.211z"/></symbol><use xlink:href="#J" transform="matrix(7.98205 0 0 -7.98205 134.984 69.09)"/><use xlink:href="#K" transform="matrix(7.98205 0 0 -7.98205 138.927 69.05)"/><use xlink:href="#L" transform="matrix(7.98205 0 0 -7.98205 143.07 69.09)"/><use xlink:href="#K" transform="matrix(7.98205 0 0 -7.98205 144.914 69.05)"/><use xlink:href="#M" transform="matrix(7.98205 0 0 -7.98205 149.096 70.327)"/><use xlink:href="#N" transform="matrix(7.98205 0 0 -7.98205 151.65 68.986)"/><use xlink:href="#O" transform="matrix(7.98205 0 0 -7.98205 156.456 68.986)"/><use xlink:href="#L" transform="matrix(7.98205 0 0 -7.98205 160.255 69.09)"/><use xlink:href="#P" transform="matrix(7.98205 0 0 -7.98205 162.051 69.098)"/><use xlink:href="#Q" transform="matrix(7.98205 0 0 -7.98205 166.13 70.327)"/><use xlink:href="#R" transform="matrix(7.98205 0 0 -7.98205 181.95 69.09)"/><use xlink:href="#L" transform="matrix(7.98205 0 0 -7.98205 186.077 69.09)"/><use xlink:href="#S" transform="matrix(7.98205 0 0 -7.98205 187.953 69.09)"/><use xlink:href="#T" transform="matrix(7.98205 0 0 -7.98205 191.872 68.986)"/><use xlink:href="#U" transform="matrix(7.98205 0 0 -7.98205 195.863 68.986)"/><path stroke-width=".7981955000000001" stroke-miterlimit="10" fill="none" stroke="#000" d="M2.882 74.683h198.057"/></g></svg>