<svg xmlns="http://www.w3.org/2000/svg" xmlns:xlink="http://www.w3.org/1999/xlink" width="156.872" height="89.641" viewBox="0 0 117.654 67.231"><clipPath id="a"><path transform="matrix(1 0 0 -1 -376.691 555.703)" d="M0 0h612v792H0z"/></clipPath><g clip-path="url(#a)"><path stroke-width=".82238445" stroke-miterlimit="10" fill="none" stroke="#000" d="M4.326 4.368h110.101"/><symbol id="b"><path d="M.662.573V.12C.662.037.65.024.571.019V0h.28v.019C.778.024.764.038.764.109v.444c0 .071.013.084.087.09v.019H.652L.431.157.2.662H.002V.643C.084.638.097.626.097.553V.147C.097.044.083.025 0 .019V0h.235v.019C.158.023.141.046.141.147V.55L.392 0h.014l.256.573z"/></symbol><symbol id="c"><path d="M.383.174C.335.098.292.069.228.069c-.057 0-.1.029-.129.086a.299.299 0 0 0-.027.132H.38C.372.352.362.381.337.413A.164.164 0 0 1 .209.47.2.2 0 0 1 .074.418C.027.377 0 .306 0 .224 0 .086.072 0 .187 0c.095 0 .17.059.212.167L.383.174M.074.319C.085.397.119.434.18.434S.265.406.278.319H.074z"/></symbol><symbol id="d"><path d="M.242.46H.141v.116c0 .01-.001.013-.007.013L.114.561A.362.362 0 0 0 .017.454C.006.447 0 .44 0 .435 0 .432.001.43.004.428h.053V.127C.057.043.087 0 .146 0c.049 0 .087.024.12.076L.253.087C.232.062.215.052.193.052c-.037 0-.052.027-.052.09v.286h.101V.46z"/></symbol><symbol id="e"><path d="M.148.343C.19.389.22.406.259.406.309.406.334.37.334.3V.102C.334.034.324.021.266.015V0h.212v.015c-.054.01-.06.018-.06.087v.199C.418.406.376.46.295.46.236.46.194.436.148.376V.68L.143.683A1.724 1.724 0 0 0 .028.647L.001.639V.623a.045.045 0 0 0 .012.001C.056.624.064.616.064.573V.102C.064.032.058.023 0 .015V0h.216v.015C.158.021.148.033.148.102v.241z"/></symbol><symbol id="f"><path d="M.221.47C.091.47 0 .374 0 .236 0 .101.093 0 .219 0s.222.106.222.244C.441.375.349.47.221.47M.208.442C.292.442.351.346.351.209.351.096.306.028.231.028a.112.112 0 0 0-.097.064.42.42 0 0 0-.044.193c0 .095.047.157.118.157z"/></symbol><symbol id="g"><path d="m.317 0 .147.052v.016L.441.067C.405.067.397.078.397.124v.567L.392.693A1.702 1.702 0 0 0 .245.649V.633a.162.162 0 0 0 .022.001c.037 0 .046-.01.046-.051V.427C.275.459.248.47.208.47.093.47 0 .357 0 .215 0 .087.075 0 .185 0c.056 0 .094.02.128.067V.003L.317 0M.313.112C.313.105.306.093.296.082a.094.094 0 0 0-.072-.03c-.083 0-.138.08-.138.203 0 .113.049.187.125.187a.105.105 0 0 0 .102-.1v-.23z"/></symbol><symbol id="h"><path d="M.264.324.26.46H.249L.247.458C.238.451.237.45.233.45a.071.071 0 0 0-.027.007.198.198 0 0 1-.07.012C.057.469 0 .418 0 .346 0 .29.032.25.117.202L.175.169C.21.149.227.125.227.094.227.05.195.022.144.022A.11.11 0 0 0 .06.057C.039.082.03.105.017.162H.001V.006h.013c.007.01.011.012.023.012A.196.196 0 0 0 .083.01.39.39 0 0 1 .156 0c.077 0 .141.058.141.128 0 .05-.024.083-.084.119L.105.311a.078.078 0 0 0-.043.068c0 .04.031.068.077.068.057 0 .087-.034.11-.123h.015z"/></symbol><symbol id="i"><path d="M.003.398a.127.127 0 0 0 .032.004C.061.402.07.386.07.338V.085C.07.031.056.016 0 .015V0h.222v.015C.169.017.154.028.154.067v.282c0 .002.008.012.015.019.025.023.068.04.103.04.044 0 .066-.035.066-.105V.086C.338.03.327.019.27.015V0h.224v.015C.437.016.422.033.422.095v.252c.03.043.063.061.109.061.057 0 .075-.027.075-.11V.087C.606.03.598.022.54.015V0h.219v.015L.733.017C.703.019.69.037.69.076v.206C.69.4.651.46.574.46.516.46.465.434.411.376.393.433.359.46.305.46.261.46.233.446.15.383v.075L.143.46a1.433 1.433 0 0 0-.14-.045V.398z"/></symbol><symbol id="j"><path d="M.691.019C.646.022.636.032.601.106L.352.674h-.02L.124.183C.06.037.048.021 0 .019V0h.198v.019C.15.019.13.032.13.06c0 .012.003.026.008.039l.046.117h.262L.487.12A.198.198 0 0 0 .506.053C.506.028.489.02.436.019V0h.255v.019m-.49.238.115.275.116-.275H.201z"/></symbol><symbol id="k"><path d="M.186.291A.796.796 0 0 1 .255.288.35.35 0 0 1 .43.322a.18.18 0 0 1 .096.159c0 .042-.014.08-.041.109C.445.634.358.662.264.662H0V.643C.074.635.084.625.084.553V.12C.084.036.076.026 0 .019V0h.28v.019C.201.022.186.036.186.109v.182m0 .3c0 .027.007.034.034.034.135 0 .197-.047.197-.15C.417.378.358.328.243.328a.59.59 0 0 0-.057.003v.26z"/></symbol><symbol id="l"><path d="M.642.019C.604.022.584.032.555.066L.349.319c.067.013.097.025.13.052A.147.147 0 0 1 .53.486c0 .043-.013.08-.039.109C.453.636.37.662.276.662H0V.643C.075.635.085.624.085.553V.12C.085.037.075.025 0 .019V0h.277v.019C.2.024.187.037.187.109v.197l.056.002L.481 0h.161v.019m-.455.57c0 .028.011.036.051.036.125 0 .183-.043.183-.137C.421.438.4.396.364.377.318.351.283.345.187.343v.246z"/></symbol><symbol id="m"><path d="M.373.166C.325.096.289.072.232.072c-.091 0-.155.08-.155.195 0 .103.055.174.136.174C.249.441.262.43.272.393L.278.371C.286.343.304.325.325.325c.026 0 .048.019.048.042C.373.423.303.47.219.47.17.47.119.45.078.414A.249.249 0 0 1 0 .223C0 .093.079 0 .19 0a.18.18 0 0 1 .121.047.335.335 0 0 1 .076.11L.373.166z"/></symbol><symbol id="n"><path d="M.405.076C.388.062.376.057.361.057c-.023 0-.03.014-.03.058V.31c0 .052-.005.081-.02.105C.289.451.246.47.187.47.093.47.019.421.019.358c0-.023.02-.043.043-.043.024 0 .045.02.045.042L.105.373a.112.112 0 0 0-.003.024c0 .027.032.049.072.049C.223.446.25.417.25.363V.302C.096.24.079.232.036.194A.121.121 0 0 1 0 .107C0 .044.044 0 .105 0 .149 0 .19.021.251.073.256.021.274 0 .315 0c.034 0 .055.012.09.05v.026M.25.133C.25.102.245.093.224.081A.158.158 0 0 0 .151.058C.116.058.088.092.088.135v.004c0 .059.041.095.162.139V.133z"/></symbol><symbol id="o"><path d="M0 .623h.006a.398.398 0 0 0 .031.002C.069.625.079.611.079.564V.087C.079.033.065.02.002.015V0h.236v.015C.175.019.163.029.163.084v.597L.159.683A1.99 1.99 0 0 0 0 .639V.623z"/></symbol><use xlink:href="#b" transform="matrix(8.22395 0 0 -8.22395 13.788 16.206)"/><use xlink:href="#c" transform="matrix(8.22395 0 0 -8.22395 21.206 16.288)"/><use xlink:href="#d" transform="matrix(8.22395 0 0 -8.22395 24.758 16.288)"/><use xlink:href="#e" transform="matrix(8.22395 0 0 -8.22395 27.012 16.206)"/><use xlink:href="#f" transform="matrix(8.22395 0 0 -8.22395 31.288 16.288)"/><use xlink:href="#g" transform="matrix(8.22395 0 0 -8.22395 35.384 16.288)"/><use xlink:href="#h" transform="matrix(8.22395 0 0 -8.22395 39.693 16.288)"/><use xlink:href="#i" transform="matrix(8.22395 0 0 -8.22395 64.3 16.206)"/><use xlink:href="#j" transform="matrix(8.22395 0 0 -8.22395 70.69 16.206)"/><use xlink:href="#k" transform="matrix(8.22395 0 0 -8.22395 76.635 16.206)"/><use xlink:href="#l" transform="matrix(8.22395 0 0 -8.22395 93.552 16.206)"/><use xlink:href="#c" transform="matrix(8.22395 0 0 -8.22395 99.103 16.288)"/><use xlink:href="#m" transform="matrix(8.22395 0 0 -8.22395 102.754 16.288)"/><use xlink:href="#n" transform="matrix(8.22395 0 0 -8.22395 106.504 16.288)"/><use xlink:href="#o" transform="matrix(8.22395 0 0 -8.22395 110.008 16.206)"/><use xlink:href="#o" transform="matrix(8.22395 0 0 -8.22395 112.294 16.206)"/><path stroke-width=".5138613" stroke-miterlimit="10" fill="none" stroke="#000" d="M4.326 21.922h110.101"/><symbol id="p"><path d="M.405.69H.384C.38.667.369.656.352.656a.117.117 0 0 0-.044.012.31.31 0 0 1-.106.022.185.185 0 0 1-.12-.046.16.16 0 0 1-.053-.125c0-.08.044-.136.156-.195A.409.409 0 0 0 .334.207.106.106 0 0 0 .348.149C.348.082.298.036.225.036.136.036.073.091.023.213H0L.03.001h.022C.053.02.065.034.08.034A.153.153 0 0 0 .127.023.322.322 0 0 1 .245 0C.36 0 .449.079.449.182.449.264.394.329.262.4.157.458.115.502.115.556c0 .055.042.093.104.093A.168.168 0 0 0 .341.594.228.228 0 0 0 .402.477h.025L.405.69z"/></symbol><symbol id="q"><path d="M.47.06H.465C.419.06.408.071.408.117V.46H.25V.443C.312.44.324.43.324.38V.145C.324.117.319.103.305.092A.141.141 0 0 0 .217.058C.178.058.146.092.146.134V.46H0V.446C.048.443.062.428.062.382V.13C.062.051.11 0 .183 0a.15.15 0 0 1 .103.043l.043.043V.003L.333.001c.05.02.086.031.137.045V.06z"/></symbol><symbol id="r"><path d="M.234.385C.333.438.368.48.368.548.368.63.296.69.196.69.087.69.006.623.006.532.006.467.025.438.13.346.022.264 0 .233 0 .165 0 .068.079 0 .192 0c.12 0 .197.066.197.169 0 .077-.034.126-.155.216M.216.282C.289.23.313.194.313.138a.105.105 0 0 0-.11-.11C.127.028.076.086.076.173c0 .064.022.106.08.153l.06-.044M.205.403C.116.461.08.507.08.563c0 .058.045.099.108.099.068 0 .111-.044.111-.113C.299.492.271.447.214.409L.205.403z"/></symbol><symbol id="s"><path d="M.149.597h.196c.016 0 .02.002.023.009l.038.089-.009.007C.382.681.372.676.351.676H.142L.033.439.032.434c0-.005.004-.008.012-.008a.39.39 0 0 0 .113-.02C.272.369.325.307.325.208.325.112.264.037.186.037c-.02 0-.037.007-.067.029C.087.089.064.099.043.099.014.099 0 .087 0 .062 0 .024.047 0 .122 0c.084 0 .156.027.206.078a.233.233 0 0 1 .067.178.212.212 0 0 1-.069.168C.282.468.225.491.107.512l.042.085z"/></symbol><symbol id="t"><path d="M.055.111A.057.057 0 0 1 0 .054C0 .025.025 0 .054 0c.031 0 .057.025.057.054a.057.057 0 0 1-.056.057z"/></symbol><symbol id="u"><path d="M.18.676 0 .585V.571l.027.011a.144.144 0 0 0 .045.011c.021 0 .03-.015.03-.047V.093C.102.06.094.037.078.028.063.019.049.016.007.015V0h.276v.015C.204.016.188.026.188.074v.6L.18.676z"/></symbol><symbol id="v"><path d="M.23.69A.183.183 0 0 1 .096.638C.038.582 0 .467 0 .35 0 .241.033.124.08.068A.186.186 0 0 1 .226 0c.051 0 .094.017.13.052.058.055.096.171.096.292C.452.549.361.69.23.69M.227.664C.311.664.356.551.356.342.356.133.312.026.226.026c-.086 0-.13.107-.13.315 0 .212.045.323.131.323z"/></symbol><symbol id="w"><path d="M.029 0a.432.432 0 0 1 .235.081c.104.076.165.2.165.335 0 .165-.092.282-.221.282C.089.698 0 .597 0 .462 0 .34.072.259.18.259c.055 0 .097.016.15.057A.374.374 0 0 0 .026.02L.029 0m.303.377C.332.357.328.348.317.339A.157.157 0 0 0 .216.302C.14.302.092.377.092.496a.26.26 0 0 0 .037.143A.09.09 0 0 0 .2.67C.287.67.332.584.332.416V.377z"/></symbol><symbol id="x"><path d="M.412.698a.436.436 0 0 1-.245-.08A.387.387 0 0 1 0 .293C0 .206.027.118.07.068A.198.198 0 0 1 .224 0c.124 0 .21.095.21.233 0 .128-.073.209-.188.209C.202.442.181.435.118.397a.346.346 0 0 0 .296.285L.412.698M.208.396C.294.396.344.324.344.199.344.089.305.028.235.028.147.028.093.122.093.277c0 .051.008.079.028.094a.145.145 0 0 0 .087.025z"/></symbol><symbol id="y"><path d="M.592.464.583.69H.562C.556.669.54.657.52.657a.117.117 0 0 0-.039.009.475.475 0 0 1-.146.024.347.347 0 0 1-.227-.086A.344.344 0 0 1 0 .339C0 .246.03.16.081.103A.341.341 0 0 1 .332 0c.113 0 .212.046.273.127L.587.145C.513.074.447.044.364.044a.24.24 0 0 0-.162.058C.147.151.116.241.116.352c0 .181.093.298.238.298A.207.207 0 0 0 .503.589.249.249 0 0 0 .569.464h.023z"/></symbol><symbol id="z"><path d="M0 .398a.067.067 0 0 0 .027.004C.055.402.064.387.064.338V.09C.064.033.053.019.002.015V0h.212v.015C.163.019.148.031.148.067v.281c.048.045.07.057.103.057C.3.405.324.374.324.308V.099C.324.036.311.019.261.015V0h.208v.015C.42.02.408.032.408.081V.31C.408.404.364.46.29.46.244.46.213.443.145.379v.079L.138.46A1.866 1.866 0 0 0 0 .415V.398z"/></symbol><symbol id="A"><path d="M.159.46.004.405V.39l.008.001a.224.224 0 0 0 .034.003C.07.394.079.378.079.334V.102C.079.03.069.019 0 .015V0h.237v.015C.171.02.163.03.163.102v.355L.159.46M.112.683a.051.051 0 0 1-.05-.051.05.05 0 0 1 .05-.051.05.05 0 0 1 .052.051.051.051 0 0 1-.052.051z"/></symbol><symbol id="B"><path d="M.429.67h-.37L0 .523.017.515C.06.583.078.596.133.596H.35L.152 0h.065l.212.654V.67z"/></symbol><use xlink:href="#p" transform="matrix(8.22395 0 0 -8.22395 20.885 33.72)"/><use xlink:href="#q" transform="matrix(8.22395 0 0 -8.22395 25.186 33.687)"/><use xlink:href="#i" transform="matrix(8.22395 0 0 -8.22395 29.356 33.605)"/><use xlink:href="#r" transform="matrix(8.22395 0 0 -8.22395 65.886 33.72)"/><use xlink:href="#s" transform="matrix(8.22395 0 0 -8.22395 69.8 33.72)"/><use xlink:href="#t" transform="matrix(8.22395 0 0 -8.22395 74.225 33.695)"/><use xlink:href="#u" transform="matrix(8.22395 0 0 -8.22395 76.619 33.605)"/><use xlink:href="#v" transform="matrix(8.22395 0 0 -8.22395 94.867 33.72)"/><use xlink:href="#t" transform="matrix(8.22395 0 0 -8.22395 99.358 33.695)"/><use xlink:href="#w" transform="matrix(8.22395 0 0 -8.22395 101.085 33.786)"/><use xlink:href="#x" transform="matrix(8.22395 0 0 -8.22395 105.23 33.72)"/><use xlink:href="#w" transform="matrix(8.22395 0 0 -8.22395 109.309 33.786)"/><use xlink:href="#y" transform="matrix(8.22395 0 0 -8.22395 4.556 45.747)"/><use xlink:href="#f" transform="matrix(8.22395 0 0 -8.22395 10.05 45.714)"/><use xlink:href="#z" transform="matrix(8.22395 0 0 -8.22395 14.055 45.632)"/><use xlink:href="#m" transform="matrix(8.22395 0 0 -8.22395 18.24 45.714)"/><use xlink:href="#n" transform="matrix(8.22395 0 0 -8.22395 21.991 45.714)"/><use xlink:href="#d" transform="matrix(8.22395 0 0 -8.22395 25.445 45.714)"/><use xlink:href="#c" transform="matrix(8.22395 0 0 -8.22395 27.83 45.714)"/><use xlink:href="#z" transform="matrix(8.22395 0 0 -8.22395 31.407 45.632)"/><use xlink:href="#n" transform="matrix(8.22395 0 0 -8.22395 35.692 45.714)"/><use xlink:href="#d" transform="matrix(8.22395 0 0 -8.22395 39.146 45.714)"/><use xlink:href="#A" transform="matrix(8.22395 0 0 -8.22395 41.457 45.632)"/><use xlink:href="#f" transform="matrix(8.22395 0 0 -8.22395 43.85 45.714)"/><use xlink:href="#z" transform="matrix(8.22395 0 0 -8.22395 47.855 45.632)"/><use xlink:href="#r" transform="matrix(8.22395 0 0 -8.22395 65.89 45.747)"/><use xlink:href="#s" transform="matrix(8.22395 0 0 -8.22395 69.805 45.747)"/><use xlink:href="#t" transform="matrix(8.22395 0 0 -8.22395 74.23 45.723)"/><use xlink:href="#v" transform="matrix(8.22395 0 0 -8.22395 75.907 45.747)"/><use xlink:href="#v" transform="matrix(8.22395 0 0 -8.22395 94.863 45.747)"/><use xlink:href="#t" transform="matrix(8.22395 0 0 -8.22395 99.354 45.723)"/><use xlink:href="#w" transform="matrix(8.22395 0 0 -8.22395 101.08 45.813)"/><use xlink:href="#B" transform="matrix(8.22395 0 0 -8.22395 105.11 45.698)"/><use xlink:href="#v" transform="matrix(8.22395 0 0 -8.22395 109.255 45.747)"/><symbol id="C"><path d="M.619.227H.59A.348.348 0 0 0 .502.086C.461.049.405.031.328.031c-.061 0-.08.013-.08.056v.472c0 .075.014.088.101.092v.025H0V.651C.068.647.086.631.086.58V.096C.086.045.073.034 0 .025V0h.578l.041.227z"/></symbol><symbol id="D"><path d="M.962.691H.78V.666C.834.663.849.653.849.622A.128.128 0 0 0 .842.58L.73.237.622.573a.242.242 0 0 0-.014.056c0 .024.015.033.059.036L.68.666v.025H.368V.666C.409.664.429.655.44.631L.475.535.357.227l-.12.364A.108.108 0 0 0 .23.624c0 .029.012.038.064.042v.025H0V.666C.042.66.052.651.069.602L.281 0h.028l.186.477L.666 0h.027l.2.602c.013.04.036.061.069.064v.025z"/></symbol><symbol id="E"><path d="M.567.676H0V.651C.069.647.088.632.088.58V.096C.088.044.074.033 0 .025V0h.36v.025C.268.029.25.041.25.096v.233C.352.327.389.29.403.174h.025v.338H.403C.385.398.35.363.25.363v.232c0 .037.013.047.064.047C.406.642.465.625.496.59.518.565.529.538.543.475h.024v.201z"/></symbol><symbol id="F"><path d="M.15.337A.24.24 0 0 1 .044.28.148.148 0 0 1 0 .17C0 .068.085 0 .212 0c.139 0 .232.08.232.2 0 .087-.043.149-.15.217C.39.451.43.492.43.556.43.645.354.701.235.701.1.701.011.631.011.526c0-.075.04-.13.139-.189m.12.098C.186.478.14.533.14.589c0 .047.036.083.083.083.056 0 .088-.045.088-.123C.311.502.303.479.27.435M.172.319C.281.246.305.214.305.14.305.073.272.032.218.032.157.032.121.085.121.174c0 .055.011.086.051.145z"/></symbol><symbol id="G"><path d="M.127.557h.278l.043.127H.126L.029.339a.734.734 0 0 0 .18-.027C.298.284.351.227.351.161c0-.056-.044-.1-.1-.1-.023 0-.05.012-.09.042C.118.135.088.148.062.148.026.148 0 .123 0 .088 0 .035.058 0 .147 0c.165 0 .282.1.282.241 0 .104-.064.184-.173.215a.633.633 0 0 1-.151.02l.022.081z"/></symbol><symbol id="H"><path d="M.084.169A.085.085 0 0 1 0 .085C0 .037.036 0 .083 0c.048 0 .086.037.086.083a.086.086 0 0 1-.085.086z"/></symbol><symbol id="I"><path d="M.226.701C.161.701.095.657.054.585A.51.51 0 0 1 0 .353C0 .147.094 0 .227 0c.129 0 .225.149.225.35 0 .2-.097.351-.226.351M.294.235A.727.727 0 0 0 .277.071C.266.042.25.028.227.028c-.05 0-.069.059-.069.207v.229c0 .151.019.209.067.209.049 0 .069-.062.069-.209V.235z"/></symbol><symbol id="J"><path d="M.005 0c.14.02.208.045.286.104a.377.377 0 0 1 .156.311c0 .173-.092.286-.232.286C.09.701 0 .602 0 .465 0 .347.073.267.182.267c.038 0 .064.005.091.019C.23.134.149.055.005.026V0m.278.341C.282.328.281.323.278.321A.089.089 0 0 0 .237.312C.175.312.152.371.152.528c0 .116.012.146.061.146A.054.054 0 0 0 .266.64.45.45 0 0 0 .291.471C.291.444.289.412.286.367L.283.341z"/></symbol><symbol id="K"><path d="M.46.676H.044L0 .454h.025c.019.064.043.085.098.085H.33L.13 0h.095L.46.676z"/></symbol><symbol id="L"><path d="M.461.211H.437C.408.139.396.133.294.133H.143l.162.154c.079.075.114.142.114.218a.177.177 0 0 1-.185.183.185.185 0 0 1-.133-.056.355.355 0 0 1-.087-.148h.028c.031.062.068.09.122.09A.11.11 0 0 0 .263.519a.156.156 0 0 0 .02-.072.29.29 0 0 0-.051-.148A1.806 1.806 0 0 0 0 .023V0h.416l.045.211z"/></symbol><use xlink:href="#C" transform="matrix(8.22395 0 0 -8.22395 16.735 57.66)"/><use xlink:href="#D" transform="matrix(8.22395 0 0 -8.22395 21.464 57.784)"/><use xlink:href="#E" transform="matrix(8.22395 0 0 -8.22395 29.664 57.66)"/><use xlink:href="#E" transform="matrix(8.22395 0 0 -8.22395 34.688 57.66)"/><use xlink:href="#F" transform="matrix(8.22395 0 0 -8.22395 65.66 57.767)"/><use xlink:href="#G" transform="matrix(8.22395 0 0 -8.22395 69.722 57.726)"/><use xlink:href="#H" transform="matrix(8.22395 0 0 -8.22395 73.99 57.767)"/><use xlink:href="#G" transform="matrix(8.22395 0 0 -8.22395 75.89 57.726)"/><use xlink:href="#I" transform="matrix(8.22395 0 0 -8.22395 94.863 57.767)"/><use xlink:href="#H" transform="matrix(8.22395 0 0 -8.22395 99.115 57.767)"/><use xlink:href="#J" transform="matrix(8.22395 0 0 -8.22395 101.047 57.767)"/><use xlink:href="#K" transform="matrix(8.22395 0 0 -8.22395 105.085 57.66)"/><use xlink:href="#L" transform="matrix(8.22395 0 0 -8.22395 109.197 57.66)"/><path stroke-width=".82238445" stroke-miterlimit="10" fill="none" stroke="#000" d="M4.326 63.53h110.101"/></g></svg>