<svg xmlns="http://www.w3.org/2000/svg" xmlns:xlink="http://www.w3.org/1999/xlink" width="230.695" height="200.375" viewBox="0 0 173.021 150.281"><clipPath id="a"><path transform="matrix(1 0 0 -1 -349.997 451.89)" d="M0 0h612v792H0z"/></clipPath><g clip-path="url(#a)"><path stroke-width=".8151237800000001" stroke-miterlimit="10" fill="none" stroke="#000" d="M5.916 3.807h160.336"/><symbol id="b"><path d="M.662.573V.12C.662.037.65.024.571.019V0h.28v.019C.778.024.764.038.764.109v.444c0 .071.013.084.087.09v.019H.652L.431.157.2.662H.002V.643C.084.638.097.626.097.553V.147C.097.044.083.025 0 .019V0h.235v.019C.158.023.141.046.141.147V.55L.392 0h.014l.256.573z"/></symbol><symbol id="c"><path d="M.383.174C.335.098.292.069.228.069c-.057 0-.1.029-.129.086a.299.299 0 0 0-.027.132H.38C.372.352.362.381.337.413A.164.164 0 0 1 .209.47.2.2 0 0 1 .074.418C.027.377 0 .306 0 .224 0 .086.072 0 .187 0c.095 0 .17.059.212.167L.383.174M.074.319C.085.397.119.434.18.434S.265.406.278.319H.074z"/></symbol><symbol id="d"><path d="M.242.46H.141v.116c0 .01-.001.013-.007.013L.114.561A.362.362 0 0 0 .017.454C.006.447 0 .44 0 .435 0 .432.001.43.004.428h.053V.127C.057.043.087 0 .146 0c.049 0 .087.024.12.076L.253.087C.232.062.215.052.193.052c-.037 0-.052.027-.052.09v.286h.101V.46z"/></symbol><symbol id="e"><path d="M.148.343C.19.389.22.406.259.406.309.406.334.37.334.3V.102C.334.034.324.021.266.015V0h.212v.015c-.054.01-.06.018-.06.087v.199C.418.406.376.46.295.46.236.46.194.436.148.376V.68L.143.683A1.724 1.724 0 0 0 .028.647L.001.639V.623a.045.045 0 0 0 .012.001C.056.624.064.616.064.573V.102C.064.032.058.023 0 .015V0h.216v.015C.158.021.148.033.148.102v.241z"/></symbol><symbol id="f"><path d="M.221.47C.091.47 0 .374 0 .236 0 .101.093 0 .219 0s.222.106.222.244C.441.375.349.47.221.47M.208.442C.292.442.351.346.351.209.351.096.306.028.231.028a.112.112 0 0 0-.097.064.42.42 0 0 0-.044.193c0 .095.047.157.118.157z"/></symbol><symbol id="g"><path d="m.317 0 .147.052v.016L.441.067C.405.067.397.078.397.124v.567L.392.693A1.702 1.702 0 0 0 .245.649V.633a.162.162 0 0 0 .022.001c.037 0 .046-.01.046-.051V.427C.275.459.248.47.208.47.093.47 0 .357 0 .215 0 .087.075 0 .185 0c.056 0 .094.02.128.067V.003L.317 0M.313.112C.313.105.306.093.296.082a.094.094 0 0 0-.072-.03c-.083 0-.138.08-.138.203 0 .113.049.187.125.187a.105.105 0 0 0 .102-.1v-.23z"/></symbol><symbol id="h"><path d="M.264.324.26.46H.249L.247.458C.238.451.237.45.233.45a.071.071 0 0 0-.027.007.198.198 0 0 1-.07.012C.057.469 0 .418 0 .346 0 .29.032.25.117.202L.175.169C.21.149.227.125.227.094.227.05.195.022.144.022A.11.11 0 0 0 .06.057C.039.082.03.105.017.162H.001V.006h.013c.007.01.011.012.023.012A.196.196 0 0 0 .083.01.39.39 0 0 1 .156 0c.077 0 .141.058.141.128 0 .05-.024.083-.084.119L.105.311a.078.078 0 0 0-.043.068c0 .04.031.068.077.068.057 0 .087-.034.11-.123h.015z"/></symbol><symbol id="i"><path d="M.003.398a.127.127 0 0 0 .032.004C.061.402.07.386.07.338V.085C.07.031.056.016 0 .015V0h.222v.015C.169.017.154.028.154.067v.282c0 .002.008.012.015.019.025.023.068.04.103.04.044 0 .066-.035.066-.105V.086C.338.03.327.019.27.015V0h.224v.015C.437.016.422.033.422.095v.252c.03.043.063.061.109.061.057 0 .075-.027.075-.11V.087C.606.03.598.022.54.015V0h.219v.015L.733.017C.703.019.69.037.69.076v.206C.69.4.651.46.574.46.516.46.465.434.411.376.393.433.359.46.305.46.261.46.233.446.15.383v.075L.143.46a1.433 1.433 0 0 0-.14-.045V.398z"/></symbol><symbol id="j"><path d="M.691.019C.646.022.636.032.601.106L.352.674h-.02L.124.183C.06.037.048.021 0 .019V0h.198v.019C.15.019.13.032.13.06c0 .012.003.026.008.039l.046.117h.262L.487.12A.198.198 0 0 0 .506.053C.506.028.489.02.436.019V0h.255v.019m-.49.238.115.275.116-.275H.201z"/></symbol><symbol id="k"><path d="M.186.291A.796.796 0 0 1 .255.288.35.35 0 0 1 .43.322a.18.18 0 0 1 .096.159c0 .042-.014.08-.041.109C.445.634.358.662.264.662H0V.643C.074.635.084.625.084.553V.12C.084.036.076.026 0 .019V0h.28v.019C.201.022.186.036.186.109v.182m0 .3c0 .027.007.034.034.034.135 0 .197-.047.197-.15C.417.378.358.328.243.328a.59.59 0 0 0-.057.003v.26z"/></symbol><symbol id="l"><path d="M.642.019C.604.022.584.032.555.066L.349.319c.067.013.097.025.13.052A.147.147 0 0 1 .53.486c0 .043-.013.08-.039.109C.453.636.37.662.276.662H0V.643C.075.635.085.624.085.553V.12C.085.037.075.025 0 .019V0h.277v.019C.2.024.187.037.187.109v.197l.056.002L.481 0h.161v.019m-.455.57c0 .028.011.036.051.036.125 0 .183-.043.183-.137C.421.438.4.396.364.377.318.351.283.345.187.343v.246z"/></symbol><symbol id="m"><path d="M.373.166C.325.096.289.072.232.072c-.091 0-.155.08-.155.195 0 .103.055.174.136.174C.249.441.262.43.272.393L.278.371C.286.343.304.325.325.325c.026 0 .048.019.048.042C.373.423.303.47.219.47.17.47.119.45.078.414A.249.249 0 0 1 0 .223C0 .093.079 0 .19 0a.18.18 0 0 1 .121.047.335.335 0 0 1 .076.11L.373.166z"/></symbol><symbol id="n"><path d="M.405.076C.388.062.376.057.361.057c-.023 0-.03.014-.03.058V.31c0 .052-.005.081-.02.105C.289.451.246.47.187.47.093.47.019.421.019.358c0-.023.02-.043.043-.043.024 0 .045.02.045.042L.105.373a.112.112 0 0 0-.003.024c0 .027.032.049.072.049C.223.446.25.417.25.363V.302C.096.24.079.232.036.194A.121.121 0 0 1 0 .107C0 .044.044 0 .105 0 .149 0 .19.021.251.073.256.021.274 0 .315 0c.034 0 .055.012.09.05v.026M.25.133C.25.102.245.093.224.081A.158.158 0 0 0 .151.058C.116.058.088.092.088.135v.004c0 .059.041.095.162.139V.133z"/></symbol><symbol id="o"><path d="M0 .623h.006a.398.398 0 0 0 .031.002C.069.625.079.611.079.564V.087C.079.033.065.02.002.015V0h.236v.015C.175.019.163.029.163.084v.597L.159.683A1.99 1.99 0 0 0 0 .639V.623z"/></symbol><symbol id="p"><path d="M.677.368H.422V.35C.465.347.477.344.489.336.504.327.51.304.51.261V.099C.51.067.449.04.377.04.214.04.114.154.114.34c0 .094.028.185.072.234A.23.23 0 0 0 .36.65.207.207 0 0 0 .504.595.285.285 0 0 0 .575.479h.023L.59.69H.568A.047.047 0 0 0 .523.657a.132.132 0 0 0-.044.01.431.431 0 0 1-.136.023C.143.69 0 .543 0 .339 0 .241.027.166.083.107A.373.373 0 0 1 .356 0c.086 0 .211.035.251.07v.203c0 .059.012.072.07.077v.018z"/></symbol><symbol id="q"><path d="M.467.231v.232H.444C.432.383.414.368.334.368H.189V.59c0 .028.005.034.032.034h.136C.47.624.492.609.509.519h.025L.531.662H0V.643C.074.637.087.623.087.553V.12C.087.037.076.024 0 .019V0h.28v.019C.203.023.189.037.189.109v.218h.145c.081 0 .098-.015.11-.096h.023z"/></symbol><symbol id="r"><path d="M.561.174A.3.3 0 0 0 .515.096C.48.057.425.039.342.039H.275C.202.039.189.045.189.08v.473c0 .071.014.085.093.09v.019H0V.643C.074.637.087.623.087.553V.109C.087.039.073.024 0 .019V0h.538l.048.174H.561z"/></symbol><symbol id="s"><path d="M.247.853a.506.506 0 0 1-.141-.12A.464.464 0 0 1 0 .429C0 .302.037.204.125.102A.428.428 0 0 1 .244 0l.012.016C.176.079.148.114.121.189a.706.706 0 0 0-.035.243c0 .105.013.187.04.249a.382.382 0 0 0 .13.156L.247.853z"/></symbol><symbol id="t"><path d="M.15.691.145.693A1.45 1.45 0 0 0 .029.657L0 .649V.633l.017.001c.04 0 .049-.009.049-.051V.064C.066.033.151 0 .231 0c.132 0 .234.11.234.253C.465.376.389.47.289.47.228.47.17.434.15.385v.306m0-.359c0 .039.047.075.099.075.078 0 .128-.078.128-.2C.377.096.329.032.247.032.195.032.15.055.15.08v.252z"/></symbol><symbol id="u"><path d="M.159.46.004.405V.39l.008.001a.224.224 0 0 0 .034.003C.07.394.079.378.079.334V.102C.079.03.069.019 0 .015V0h.237v.015C.171.02.163.03.163.102v.355L.159.46M.112.683a.051.051 0 0 1-.05-.051.05.05 0 0 1 .05-.051.05.05 0 0 1 .052.051.051.051 0 0 1-.052.051z"/></symbol><symbol id="v"><path d="M.6 0v.526c0 .06.01.097.029.11.014.01.028.014.066.018v.019H.46V.654C.498.651.512.647.527.638.547.624.556.588.556.526V.189L.171.673H0V.654C.043.654.057.646.097.599V.158C.097.055.083.036 0 .03V.011h.235V.03C.158.034.141.057.141.158V.55L.583 0H.6z"/></symbol><symbol id="w"><path d="M.681.673H.476V.654C.531.651.549.64.549.612A.23.23 0 0 0 .53.539L.383.172.232.51a.358.358 0 0 0-.041.111c0 .019.014.029.046.031l.029.002v.019H0V.654C.049.652.063.638.106.549L.352 0h.015l.222.561c.033.079.044.09.092.093v.019z"/></symbol><symbol id="x"><path d="M.445.137.432.142C.395.085.382.076.337.076H.098l.168.176c.089.093.128.169.128.247 0 .1-.081.177-.185.177A.195.195 0 0 1 .065.614C.033.58.018.548.001.477L.022.472c.04.098.076.13.145.13A.134.134 0 0 0 .308.461C.308.383.262.29.178.201L0 .012V0h.39l.055.137z"/></symbol><symbol id="y"><path d="M.009 0A.506.506 0 0 1 .15.12a.464.464 0 0 1 .106.304.464.464 0 0 1-.125.327.428.428 0 0 1-.119.102L0 .837A.339.339 0 0 0 .135.664.706.706 0 0 0 .17.421.626.626 0 0 0 .13.173.378.378 0 0 0 0 .016L.009 0z"/></symbol><symbol id="z"><path d="M.211.025H.125C.092.025.076.042.076.077v.672c0 .031.013.044.045.044h.09v.025H0V0h.211v.025z"/></symbol><use xlink:href="#b" transform="matrix(8.15134 0 0 -8.15134 40.897 15.54)"/><use xlink:href="#c" transform="matrix(8.15134 0 0 -8.15134 48.25 15.621)"/><use xlink:href="#d" transform="matrix(8.15134 0 0 -8.15134 51.771 15.621)"/><use xlink:href="#e" transform="matrix(8.15134 0 0 -8.15134 54.005 15.54)"/><use xlink:href="#f" transform="matrix(8.15134 0 0 -8.15134 58.243 15.621)"/><use xlink:href="#g" transform="matrix(8.15134 0 0 -8.15134 62.303 15.621)"/><use xlink:href="#h" transform="matrix(8.15134 0 0 -8.15134 66.574 15.621)"/><use xlink:href="#i" transform="matrix(8.15134 0 0 -8.15134 116.566 15.54)"/><use xlink:href="#j" transform="matrix(8.15134 0 0 -8.15134 122.9 15.54)"/><use xlink:href="#k" transform="matrix(8.15134 0 0 -8.15134 128.793 15.54)"/><use xlink:href="#l" transform="matrix(8.15134 0 0 -8.15134 145.56 15.54)"/><use xlink:href="#c" transform="matrix(8.15134 0 0 -8.15134 151.063 15.621)"/><use xlink:href="#m" transform="matrix(8.15134 0 0 -8.15134 154.682 15.621)"/><use xlink:href="#n" transform="matrix(8.15134 0 0 -8.15134 158.399 15.621)"/><use xlink:href="#o" transform="matrix(8.15134 0 0 -8.15134 161.871 15.54)"/><use xlink:href="#o" transform="matrix(8.15134 0 0 -8.15134 164.138 15.54)"/><use xlink:href="#p" transform="matrix(8.15134 0 0 -8.15134 12.628 27.575)"/><use xlink:href="#q" transform="matrix(8.15134 0 0 -8.15134 18.35 27.461)"/><use xlink:href="#r" transform="matrix(8.15134 0 0 -8.15134 22.883 27.461)"/><use xlink:href="#s" transform="matrix(8.15134 0 0 -8.15134 31.01 28.904)"/><use xlink:href="#b" transform="matrix(8.15134 0 0 -8.15134 33.43 27.461)"/><use xlink:href="#f" transform="matrix(8.15134 0 0 -8.15134 40.816 27.543)"/><use xlink:href="#t" transform="matrix(8.15134 0 0 -8.15134 44.68 27.543)"/><use xlink:href="#u" transform="matrix(8.15134 0 0 -8.15134 48.861 27.461)"/><use xlink:href="#o" transform="matrix(8.15134 0 0 -8.15134 51.151 27.461)"/><use xlink:href="#c" transform="matrix(8.15134 0 0 -8.15134 53.466 27.543)"/><use xlink:href="#v" transform="matrix(8.15134 0 0 -8.15134 56.98 27.55)"/><use xlink:href="#c" transform="matrix(8.15134 0 0 -8.15134 62.971 27.543)"/><use xlink:href="#d" transform="matrix(8.15134 0 0 -8.15134 66.492 27.543)"/><use xlink:href="#w" transform="matrix(8.15134 0 0 -8.15134 68.783 27.55)"/><use xlink:href="#x" transform="matrix(8.15134 0 0 -8.15134 74.782 27.461)"/><use xlink:href="#y" transform="matrix(8.15134 0 0 -8.15134 78.85 28.904)"/><use xlink:href="#z" transform="matrix(8.15134 0 0 -8.15134 84.898 28.733)"/><symbol id="A"><path d="M.11.344A.287.287 0 0 0 .216.333.152.152 0 0 0 .317.185C.317.101.26.036.186.036.159.036.139.043.102.067.072.085.055.092.038.092.015.092 0 .078 0 .057 0 .022.043 0 .113 0 .19 0 .269.026.316.067a.215.215 0 0 1 .073.166.19.19 0 0 1-.045.129.208.208 0 0 1-.083.053C.33.462.355.499.355.553.355.634.291.69.199.69a.191.191 0 0 1-.13-.049C.039.614.024.588.002.528L.017.524C.058.597.103.63.166.63c.065 0 .11-.044.11-.107a.14.14 0 0 0-.04-.097A.29.29 0 0 0 .11.357V.344z"/></symbol><use xlink:href="#A" transform="matrix(8.15134 0 0 -8.15134 87.246 27.575)" fill="#0f0"/><use xlink:href="#x" transform="matrix(8.15134 0 0 -8.15134 91.215 27.461)" fill="#0f0"/><symbol id="B"><path d="M0 .025V0h.211v.818H0V.793h.086C.119.793.135.776.135.741V.069C.135.038.121.025.09.025H0z"/></symbol><symbol id="C"><path d="M.234.385C.333.438.368.48.368.548.368.63.296.69.196.69.087.69.006.623.006.532.006.467.025.438.13.346.022.264 0 .233 0 .165 0 .068.079 0 .192 0c.12 0 .197.066.197.169 0 .077-.034.126-.155.216M.216.282C.289.23.313.194.313.138a.105.105 0 0 0-.11-.11C.127.028.076.086.076.173c0 .064.022.106.08.153l.06-.044M.205.403C.116.461.08.507.08.563c0 .058.045.099.108.099.068 0 .111-.044.111-.113C.299.492.271.447.214.409L.205.403z"/></symbol><symbol id="D"><path d="M.23.69A.183.183 0 0 1 .096.638C.038.582 0 .467 0 .35 0 .241.033.124.08.068A.186.186 0 0 1 .226 0c.051 0 .094.017.13.052.058.055.096.171.096.292C.452.549.361.69.23.69M.227.664C.311.664.356.551.356.342.356.133.312.026.226.026c-.086 0-.13.107-.13.315 0 .212.045.323.131.323z"/></symbol><symbol id="E"><path d="M.055.111A.057.057 0 0 1 0 .054C0 .025.025 0 .054 0c.031 0 .057.025.057.054a.057.057 0 0 1-.056.057z"/></symbol><use xlink:href="#B" transform="matrix(8.15134 0 0 -8.15134 95.324 28.733)"/><use xlink:href="#C" transform="matrix(8.15134 0 0 -8.15134 118.14 27.575)"/><use xlink:href="#D" transform="matrix(8.15134 0 0 -8.15134 121.954 27.575)"/><use xlink:href="#E" transform="matrix(8.15134 0 0 -8.15134 126.405 27.55)"/><use xlink:href="#C" transform="matrix(8.15134 0 0 -8.15134 128.328 27.575)"/><symbol id="F"><path d="M.226.701C.161.701.095.657.054.585A.51.51 0 0 1 0 .353C0 .147.094 0 .227 0c.129 0 .225.149.225.35 0 .2-.097.351-.226.351M.294.235A.727.727 0 0 0 .277.071C.266.042.25.028.227.028c-.05 0-.069.059-.069.207v.229c0 .151.019.209.067.209.049 0 .069-.062.069-.209V.235z"/></symbol><symbol id="G"><path d="M.084.169A.085.085 0 0 1 0 .085C0 .037.036 0 .083 0c.048 0 .086.037.086.083a.086.086 0 0 1-.085.086z"/></symbol><symbol id="H"><path d="M.005 0c.14.02.208.045.286.104a.377.377 0 0 1 .156.311c0 .173-.092.286-.232.286C.09.701 0 .602 0 .465 0 .347.073.267.182.267c.038 0 .064.005.091.019C.23.134.149.055.005.026V0m.278.341C.282.328.281.323.278.321A.089.089 0 0 0 .237.312C.175.312.152.371.152.528c0 .116.012.146.061.146A.054.054 0 0 0 .266.64.45.45 0 0 0 .291.471C.291.444.289.412.286.367L.283.341z"/></symbol><symbol id="I"><path d="M.46.676H.044L0 .454h.025c.019.064.043.085.098.085H.33L.13 0h.095L.46.676z"/></symbol><symbol id="J"><path d="M.442.701A.553.553 0 0 1 .171.608.377.377 0 0 1 0 .286C0 .113.092 0 .232 0c.124 0 .215.099.215.235C.447.356.374.434.26.434A.189.189 0 0 1 .176.417c.037.147.12.228.266.258v.026M.205.389c.067 0 .09-.055.09-.214C.295.057.283.027.234.027a.054.054 0 0 0-.051.029.52.52 0 0 0-.027.199.36.36 0 0 0 .013.124c.008.006.022.01.036.01z"/></symbol><use xlink:href="#F" transform="matrix(8.15134 0 0 -8.15134 146.864 27.567)"/><use xlink:href="#G" transform="matrix(8.15134 0 0 -8.15134 151.078 27.567)"/><use xlink:href="#H" transform="matrix(8.15134 0 0 -8.15134 152.994 27.567)"/><use xlink:href="#I" transform="matrix(8.15134 0 0 -8.15134 156.996 27.461)"/><use xlink:href="#J" transform="matrix(8.15134 0 0 -8.15134 161.162 27.567)"/><symbol id="K"><path d="M0 .063V0h.246v.063H0z"/></symbol><symbol id="L"><path d="M.18.676 0 .585V.571l.027.011a.144.144 0 0 0 .045.011c.021 0 .03-.015.03-.047V.093C.102.06.094.037.078.028.063.019.049.016.007.015V0h.276v.015C.204.016.188.026.188.074v.6L.18.676z"/></symbol><symbol id="M"><path d="M.46.231H.358v.445H.314L0 .231V.167h.281V0h.077v.167H.46v.064m-.18 0H.04l.24.343V.231z"/></symbol><use xlink:href="#p" transform="matrix(8.15134 0 0 -8.15134 6.177 39.497)"/><use xlink:href="#q" transform="matrix(8.15134 0 0 -8.15134 11.9 39.383)"/><use xlink:href="#r" transform="matrix(8.15134 0 0 -8.15134 16.431 39.383)"/><use xlink:href="#s" transform="matrix(8.15134 0 0 -8.15134 24.558 40.826)"/><use xlink:href="#b" transform="matrix(8.15134 0 0 -8.15134 26.979 39.383)"/><use xlink:href="#f" transform="matrix(8.15134 0 0 -8.15134 34.364 39.465)"/><use xlink:href="#t" transform="matrix(8.15134 0 0 -8.15134 38.228 39.465)"/><use xlink:href="#u" transform="matrix(8.15134 0 0 -8.15134 42.41 39.383)"/><use xlink:href="#o" transform="matrix(8.15134 0 0 -8.15134 44.7 39.383)"/><use xlink:href="#c" transform="matrix(8.15134 0 0 -8.15134 47.015 39.465)"/><use xlink:href="#v" transform="matrix(8.15134 0 0 -8.15134 50.528 39.473)"/><use xlink:href="#c" transform="matrix(8.15134 0 0 -8.15134 56.52 39.465)"/><use xlink:href="#d" transform="matrix(8.15134 0 0 -8.15134 60.04 39.465)"/><use xlink:href="#w" transform="matrix(8.15134 0 0 -8.15134 62.331 39.473)"/><use xlink:href="#x" transform="matrix(8.15134 0 0 -8.15134 68.33 39.383)"/><use xlink:href="#K" transform="matrix(8.15134 0 0 -8.15134 72.48 37.802)"/><use xlink:href="#L" transform="matrix(8.15134 0 0 -8.15134 75.781 39.383)"/><use xlink:href="#E" transform="matrix(8.15134 0 0 -8.15134 79.523 39.473)"/><use xlink:href="#M" transform="matrix(8.15134 0 0 -8.15134 81.088 39.383)"/><use xlink:href="#y" transform="matrix(8.15134 0 0 -8.15134 85.302 40.826)"/><use xlink:href="#z" transform="matrix(8.15134 0 0 -8.15134 91.35 40.655)"/><use xlink:href="#A" transform="matrix(8.15134 0 0 -8.15134 93.698 39.497)" fill="#0f0"/><use xlink:href="#x" transform="matrix(8.15134 0 0 -8.15134 97.668 39.383)" fill="#0f0"/><symbol id="N"><path d="M.029 0a.432.432 0 0 1 .235.081c.104.076.165.2.165.335 0 .165-.092.282-.221.282C.089.698 0 .597 0 .462 0 .34.072.259.18.259c.055 0 .097.016.15.057A.374.374 0 0 0 .026.02L.029 0m.303.377C.332.357.328.348.317.339A.157.157 0 0 0 .216.302C.14.302.092.377.092.496a.26.26 0 0 0 .037.143A.09.09 0 0 0 .2.67C.287.67.332.584.332.416V.377z"/></symbol><symbol id="O"><path d="M.429.67h-.37L0 .523.017.515C.06.583.078.596.133.596H.35L.152 0h.065l.212.654V.67z"/></symbol><symbol id="P"><path d="M.149.597h.196c.016 0 .02.002.023.009l.038.089-.009.007C.382.681.372.676.351.676H.142L.033.439.032.434c0-.005.004-.008.012-.008a.39.39 0 0 0 .113-.02C.272.369.325.307.325.208.325.112.264.037.186.037c-.02 0-.037.007-.067.029C.087.089.064.099.043.099.014.099 0 .087 0 .062 0 .024.047 0 .122 0c.084 0 .156.027.206.078a.233.233 0 0 1 .067.178.212.212 0 0 1-.069.168C.282.468.225.491.107.512l.042.085z"/></symbol><symbol id="Q"><path d="M.585.169H.557C.507.061.464.037.321.037H.294C.245.037.203.042.196.049.191.052.189.063.189.08v.247h.154C.425.327.44.314.453.231h.023v.232H.453C.446.422.442.407.431.393.418.376.39.368.343.368H.189V.59c0 .028.006.034.033.034h.135C.47.624.492.609.509.519h.025L.531.662H0V.643C.074.637.087.623.087.553V.109C.087.039.073.024 0 .019V0h.54l.045.169z"/></symbol><symbol id="R"><path d="M.289.45H.166v.116c0 .058.019.089.057.089.021 0 .035-.01.053-.039C.292.59.304.58.321.58c.023 0 .042.018.042.041 0 .036-.044.062-.104.062C.197.683.144.656.118.61.092.566.084.53.083.45H.001V.418h.082V.104C.083.031.072.019 0 .015V0h.26v.015C.178.018.167.029.167.104v.314h.122V.45z"/></symbol><symbol id="S"><path d="M0 .417h.068V.094C.068.03.057.017.001.015V0h.22v.015C.165.019.152.033.152.088v.329h.086C.334.417.339.414.339.361V.097C.339.029.332.02.27.015V0h.22v.015C.434.02.423.033.423.097v.262l.002.098L.421.46A.649.649 0 0 0 .308.45H.151v.043c0 .044.003.075.008.092a.104.104 0 0 0 .098.073C.285.658.304.645.328.611.347.584.36.574.377.574c.021 0 .036.017.036.039 0 .042-.05.07-.127.07C.21.683.152.657.116.608.086.567.075.53.069.45H0V.417z"/></symbol><symbol id="T"><path d="M0 .398a.067.067 0 0 0 .027.004C.055.402.064.387.064.338V.09C.064.033.053.019.002.015V0h.212v.015C.163.019.148.031.148.067v.281c.048.045.07.057.103.057C.3.405.324.374.324.308V.099C.324.036.311.019.261.015V0h.208v.015C.42.02.408.032.408.081V.31C.408.404.364.46.29.46.244.46.213.443.145.379v.079L.138.46A1.866 1.866 0 0 0 0 .415V.398z"/></symbol><symbol id="U"><path d="M0 .662V.643C.084.638.096.627.096.553V.109C.096.035.083.022 0 .019V0h.334C.412 0 .483.021.52.055A.166.166 0 0 1 .576.18a.153.153 0 0 1-.049.113C.497.32.47.332.405.348c.052.013.073.023.097.044.025.022.04.059.04.1 0 .112-.089.17-.262.17H0M.198.326a.473.473 0 0 0 .179-.02C.434.282.461.242.461.179.461.125.44.086.4.063A.276.276 0 0 0 .261.037C.212.037.198.046.198.078v.248m0 .04v.229c0 .021.007.03.022.03h.044C.379.625.44.577.44.488.44.41.387.366.293.366H.198z"/></symbol><use xlink:href="#B" transform="matrix(8.15134 0 0 -8.15134 101.776 40.655)"/><use xlink:href="#C" transform="matrix(8.15134 0 0 -8.15134 118.144 39.497)"/><use xlink:href="#L" transform="matrix(8.15134 0 0 -8.15134 122.668 39.383)"/><use xlink:href="#E" transform="matrix(8.15134 0 0 -8.15134 126.41 39.473)"/><use xlink:href="#D" transform="matrix(8.15134 0 0 -8.15134 128.072 39.497)"/><use xlink:href="#D" transform="matrix(8.15134 0 0 -8.15134 146.86 39.497)"/><use xlink:href="#E" transform="matrix(8.15134 0 0 -8.15134 151.311 39.473)"/><use xlink:href="#N" transform="matrix(8.15134 0 0 -8.15134 153.023 39.562)"/><use xlink:href="#O" transform="matrix(8.15134 0 0 -8.15134 157.017 39.448)"/><use xlink:href="#P" transform="matrix(8.15134 0 0 -8.15134 161.19 39.497)"/><use xlink:href="#p" transform="matrix(8.15134 0 0 -8.15134 9.335 51.418)"/><use xlink:href="#q" transform="matrix(8.15134 0 0 -8.15134 15.057 51.304)"/><use xlink:href="#r" transform="matrix(8.15134 0 0 -8.15134 19.59 51.304)"/><use xlink:href="#s" transform="matrix(8.15134 0 0 -8.15134 27.716 52.747)"/><use xlink:href="#Q" transform="matrix(8.15134 0 0 -8.15134 30.137 51.304)"/><use xlink:href="#R" transform="matrix(8.15134 0 0 -8.15134 35.183 51.304)"/><use xlink:href="#S" transform="matrix(8.15134 0 0 -8.15134 37.783 51.304)"/><use xlink:href="#m" transform="matrix(8.15134 0 0 -8.15134 42.266 51.386)"/><use xlink:href="#u" transform="matrix(8.15134 0 0 -8.15134 45.812 51.304)"/><use xlink:href="#c" transform="matrix(8.15134 0 0 -8.15134 48.152 51.386)"/><use xlink:href="#T" transform="matrix(8.15134 0 0 -8.15134 51.698 51.304)"/><use xlink:href="#d" transform="matrix(8.15134 0 0 -8.15134 55.749 51.386)"/><use xlink:href="#v" transform="matrix(8.15134 0 0 -8.15134 58.007 51.394)"/><use xlink:href="#c" transform="matrix(8.15134 0 0 -8.15134 63.998 51.386)"/><use xlink:href="#d" transform="matrix(8.15134 0 0 -8.15134 67.52 51.386)"/><use xlink:href="#K" transform="matrix(8.15134 0 0 -8.15134 69.997 49.723)"/><use xlink:href="#U" transform="matrix(8.15134 0 0 -8.15134 72.532 51.304)"/><use xlink:href="#D" transform="matrix(8.15134 0 0 -8.15134 78.026 51.418)"/><use xlink:href="#y" transform="matrix(8.15134 0 0 -8.15134 82.143 52.747)"/><use xlink:href="#z" transform="matrix(8.15134 0 0 -8.15134 88.191 52.576)"/><use xlink:href="#A" transform="matrix(8.15134 0 0 -8.15134 90.539 51.418)" fill="#0f0"/><use xlink:href="#x" transform="matrix(8.15134 0 0 -8.15134 94.508 51.304)" fill="#0f0"/><use xlink:href="#B" transform="matrix(8.15134 0 0 -8.15134 98.617 52.576)"/><use xlink:href="#C" transform="matrix(8.15134 0 0 -8.15134 118.14 51.418)"/><use xlink:href="#D" transform="matrix(8.15134 0 0 -8.15134 121.954 51.418)"/><use xlink:href="#E" transform="matrix(8.15134 0 0 -8.15134 126.405 51.394)"/><use xlink:href="#C" transform="matrix(8.15134 0 0 -8.15134 128.328 51.418)"/><use xlink:href="#F" transform="matrix(8.15134 0 0 -8.15134 146.864 51.41)"/><use xlink:href="#G" transform="matrix(8.15134 0 0 -8.15134 151.078 51.41)"/><use xlink:href="#H" transform="matrix(8.15134 0 0 -8.15134 152.994 51.41)"/><use xlink:href="#I" transform="matrix(8.15134 0 0 -8.15134 156.996 51.304)"/><use xlink:href="#J" transform="matrix(8.15134 0 0 -8.15134 161.162 51.41)"/><use xlink:href="#p" transform="matrix(8.15134 0 0 -8.15134 9.335 63.34)"/><use xlink:href="#q" transform="matrix(8.15134 0 0 -8.15134 15.057 63.225)"/><use xlink:href="#r" transform="matrix(8.15134 0 0 -8.15134 19.59 63.225)"/><use xlink:href="#s" transform="matrix(8.15134 0 0 -8.15134 27.716 64.668)"/><use xlink:href="#Q" transform="matrix(8.15134 0 0 -8.15134 30.137 63.225)"/><use xlink:href="#R" transform="matrix(8.15134 0 0 -8.15134 35.183 63.225)"/><use xlink:href="#S" transform="matrix(8.15134 0 0 -8.15134 37.783 63.225)"/><use xlink:href="#m" transform="matrix(8.15134 0 0 -8.15134 42.266 63.307)"/><use xlink:href="#u" transform="matrix(8.15134 0 0 -8.15134 45.812 63.225)"/><use xlink:href="#c" transform="matrix(8.15134 0 0 -8.15134 48.152 63.307)"/><use xlink:href="#T" transform="matrix(8.15134 0 0 -8.15134 51.698 63.225)"/><use xlink:href="#d" transform="matrix(8.15134 0 0 -8.15134 55.749 63.307)"/><use xlink:href="#v" transform="matrix(8.15134 0 0 -8.15134 58.007 63.315)"/><use xlink:href="#c" transform="matrix(8.15134 0 0 -8.15134 63.998 63.307)"/><use xlink:href="#d" transform="matrix(8.15134 0 0 -8.15134 67.52 63.307)"/><use xlink:href="#K" transform="matrix(8.15134 0 0 -8.15134 69.997 61.644)"/><use xlink:href="#U" transform="matrix(8.15134 0 0 -8.15134 72.532 63.225)"/><use xlink:href="#L" transform="matrix(8.15134 0 0 -8.15134 78.736 63.225)"/><use xlink:href="#y" transform="matrix(8.15134 0 0 -8.15134 82.143 64.668)"/><use xlink:href="#z" transform="matrix(8.15134 0 0 -8.15134 88.191 64.497)"/><use xlink:href="#A" transform="matrix(8.15134 0 0 -8.15134 90.539 63.34)" fill="#0f0"/><use xlink:href="#x" transform="matrix(8.15134 0 0 -8.15134 94.508 63.225)" fill="#0f0"/><symbol id="V"><path d="M.405.69H.384C.38.667.369.656.352.656a.117.117 0 0 0-.044.012.31.31 0 0 1-.106.022.185.185 0 0 1-.12-.046.16.16 0 0 1-.053-.125c0-.08.044-.136.156-.195A.409.409 0 0 0 .334.207.106.106 0 0 0 .348.149C.348.082.298.036.225.036.136.036.073.091.023.213H0L.03.001h.022C.053.02.065.034.08.034A.153.153 0 0 0 .127.023.322.322 0 0 1 .245 0C.36 0 .449.079.449.182.449.264.394.329.262.4.157.458.115.502.115.556c0 .055.042.093.104.093A.168.168 0 0 0 .341.594.228.228 0 0 0 .402.477h.025L.405.69z"/></symbol><symbol id="W"><path d="M.47.06H.465C.419.06.408.071.408.117V.46H.25V.443C.312.44.324.43.324.38V.145C.324.117.319.103.305.092A.141.141 0 0 0 .217.058C.178.058.146.092.146.134V.46H0V.446C.048.443.062.428.062.382V.13C.062.051.11 0 .183 0a.15.15 0 0 1 .103.043l.043.043V.003L.333.001c.05.02.086.031.137.045V.06z"/></symbol><symbol id="X"><path d="M0 .418h.069V.105C.069.06.063.035.049.026.039.019.029.017 0 .015V0h.224v.015C.167.021.153.033.153.079v.339h.188V.084C.341.035.326.019.274.015V0h.215v.015C.435.019.425.029.425.081v.6L.42.683A.106.106 0 0 1 .389.672.117.117 0 0 0 .347.658a.133.133 0 0 0-.03.008.23.23 0 0 1-.081.017A.151.151 0 0 1 .115.62C.085.577.075.538.071.45H0V.418M.341.45H.153v.052c0 .104.021.154.065.154C.24.656.252.648.27.621.289.593.302.584.325.584c.007 0 .011.002.016.007V.45z"/></symbol><use xlink:href="#B" transform="matrix(8.15134 0 0 -8.15134 98.617 64.497)"/><use xlink:href="#C" transform="matrix(8.15134 0 0 -8.15134 118.14 63.34)"/><use xlink:href="#L" transform="matrix(8.15134 0 0 -8.15134 122.663 63.225)"/><use xlink:href="#E" transform="matrix(8.15134 0 0 -8.15134 126.405 63.315)"/><use xlink:href="#D" transform="matrix(8.15134 0 0 -8.15134 128.068 63.34)"/><use xlink:href="#D" transform="matrix(8.15134 0 0 -8.15134 146.865 63.34)"/><use xlink:href="#E" transform="matrix(8.15134 0 0 -8.15134 151.315 63.315)"/><use xlink:href="#N" transform="matrix(8.15134 0 0 -8.15134 153.027 63.405)"/><use xlink:href="#O" transform="matrix(8.15134 0 0 -8.15134 157.021 63.29)"/><use xlink:href="#P" transform="matrix(8.15134 0 0 -8.15134 161.195 63.34)"/><use xlink:href="#p" transform="matrix(8.15134 0 0 -8.15134 17.71 75.261)"/><use xlink:href="#q" transform="matrix(8.15134 0 0 -8.15134 23.433 75.147)"/><use xlink:href="#r" transform="matrix(8.15134 0 0 -8.15134 27.965 75.147)"/><use xlink:href="#s" transform="matrix(8.15134 0 0 -8.15134 36.092 76.59)"/><use xlink:href="#V" transform="matrix(8.15134 0 0 -8.15134 38.757 75.261)"/><use xlink:href="#e" transform="matrix(8.15134 0 0 -8.15134 43.02 75.147)"/><use xlink:href="#W" transform="matrix(8.15134 0 0 -8.15134 47.096 75.229)"/><use xlink:href="#R" transform="matrix(8.15134 0 0 -8.15134 51.261 75.147)"/><use xlink:href="#X" transform="matrix(8.15134 0 0 -8.15134 53.87 75.147)"/><use xlink:href="#c" transform="matrix(8.15134 0 0 -8.15134 58.345 75.229)"/><use xlink:href="#v" transform="matrix(8.15134 0 0 -8.15134 61.858 75.237)"/><use xlink:href="#c" transform="matrix(8.15134 0 0 -8.15134 67.85 75.229)"/><use xlink:href="#d" transform="matrix(8.15134 0 0 -8.15134 71.37 75.229)"/><use xlink:href="#y" transform="matrix(8.15134 0 0 -8.15134 73.767 76.59)"/><use xlink:href="#z" transform="matrix(8.15134 0 0 -8.15134 79.815 76.419)"/><use xlink:href="#A" transform="matrix(8.15134 0 0 -8.15134 82.163 75.261)" fill="#0f0"/><use xlink:href="#x" transform="matrix(8.15134 0 0 -8.15134 86.133 75.147)" fill="#0f0"/><use xlink:href="#B" transform="matrix(8.15134 0 0 -8.15134 90.24 76.419)"/><use xlink:href="#K" transform="matrix(8.15134 0 0 -8.15134 123.776 73.566)"/><use xlink:href="#K" transform="matrix(8.15134 0 0 -8.15134 154.8 73.566)"/><use xlink:href="#p" transform="matrix(8.15134 0 0 -8.15134 11.304 87.183)"/><use xlink:href="#q" transform="matrix(8.15134 0 0 -8.15134 17.026 87.068)"/><use xlink:href="#r" transform="matrix(8.15134 0 0 -8.15134 21.558 87.068)"/><use xlink:href="#s" transform="matrix(8.15134 0 0 -8.15134 29.685 88.511)"/><use xlink:href="#V" transform="matrix(8.15134 0 0 -8.15134 32.35 87.183)"/><use xlink:href="#e" transform="matrix(8.15134 0 0 -8.15134 36.614 87.068)"/><use xlink:href="#W" transform="matrix(8.15134 0 0 -8.15134 40.69 87.15)"/><use xlink:href="#R" transform="matrix(8.15134 0 0 -8.15134 44.855 87.068)"/><use xlink:href="#X" transform="matrix(8.15134 0 0 -8.15134 47.463 87.068)"/><use xlink:href="#c" transform="matrix(8.15134 0 0 -8.15134 51.938 87.15)"/><use xlink:href="#v" transform="matrix(8.15134 0 0 -8.15134 55.451 87.158)"/><use xlink:href="#c" transform="matrix(8.15134 0 0 -8.15134 61.443 87.15)"/><use xlink:href="#d" transform="matrix(8.15134 0 0 -8.15134 64.964 87.15)"/><use xlink:href="#w" transform="matrix(8.15134 0 0 -8.15134 70.108 87.158)"/><use xlink:href="#x" transform="matrix(8.15134 0 0 -8.15134 76.107 87.068)"/><use xlink:href="#y" transform="matrix(8.15134 0 0 -8.15134 80.174 88.511)"/><use xlink:href="#z" transform="matrix(8.15134 0 0 -8.15134 86.223 88.34)"/><use xlink:href="#A" transform="matrix(8.15134 0 0 -8.15134 88.57 87.183)" fill="#0f0"/><use xlink:href="#x" transform="matrix(8.15134 0 0 -8.15134 92.54 87.068)" fill="#0f0"/><use xlink:href="#B" transform="matrix(8.15134 0 0 -8.15134 96.648 88.34)"/><use xlink:href="#K" transform="matrix(8.15134 0 0 -8.15134 123.776 85.487)"/><use xlink:href="#K" transform="matrix(8.15134 0 0 -8.15134 154.8 85.487)"/><path stroke-width=".50932452" stroke-miterlimit="10" fill="none" stroke="#000" d="M5.916 92.733h160.336"/><symbol id="Y"><path d="M.088.109C.088.037.076.024 0 .019V0h.284C.4 0 .505.033.567.089a.328.328 0 0 1 .102.245c0 .09-.03.168-.085.223C.516.626.407.662.27.662H0V.643C.079.636.088.627.088.553V.109M.19.586c0 .031.011.039.052.039a.337.337 0 0 0 .199-.05A.286.286 0 0 0 .56.327C.56.209.519.125.438.078A.376.376 0 0 0 .242.037C.202.037.19.046.19.078v.508z"/></symbol><use xlink:href="#b" transform="matrix(8.15134 0 0 -8.15134 37.436 104.314)"/><use xlink:href="#p" transform="matrix(8.15134 0 0 -8.15134 44.846 104.428)"/><use xlink:href="#Y" transform="matrix(8.15134 0 0 -8.15134 50.6 104.314)"/><use xlink:href="#z" transform="matrix(8.15134 0 0 -8.15134 59.926 105.585)"/><use xlink:href="#M" transform="matrix(8.15134 0 0 -8.15134 62.02 104.314)" fill="#0f0"/><use xlink:href="#x" transform="matrix(8.15134 0 0 -8.15134 66.243 104.314)" fill="#0f0"/><symbol id="Z"><path d="M.412.698a.436.436 0 0 1-.245-.08A.387.387 0 0 1 0 .293C0 .206.027.118.07.068A.198.198 0 0 1 .224 0c.124 0 .21.095.21.233 0 .128-.073.209-.188.209C.202.442.181.435.118.397a.346.346 0 0 0 .296.285L.412.698M.208.396C.294.396.344.324.344.199.344.089.305.028.235.028.147.028.093.122.093.277c0 .051.008.079.028.094a.145.145 0 0 0 .087.025z"/></symbol><use xlink:href="#B" transform="matrix(8.15134 0 0 -8.15134 70.352 105.585)"/><use xlink:href="#C" transform="matrix(8.15134 0 0 -8.15134 118.143 104.428)"/><use xlink:href="#M" transform="matrix(8.15134 0 0 -8.15134 121.86 104.314)"/><use xlink:href="#E" transform="matrix(8.15134 0 0 -8.15134 126.408 104.403)"/><use xlink:href="#x" transform="matrix(8.15134 0 0 -8.15134 128.12 104.314)"/><use xlink:href="#D" transform="matrix(8.15134 0 0 -8.15134 146.86 104.428)"/><use xlink:href="#E" transform="matrix(8.15134 0 0 -8.15134 151.31 104.403)"/><use xlink:href="#N" transform="matrix(8.15134 0 0 -8.15134 153.022 104.493)"/><use xlink:href="#Z" transform="matrix(8.15134 0 0 -8.15134 157.13 104.428)"/><use xlink:href="#N" transform="matrix(8.15134 0 0 -8.15134 161.174 104.493)"/><use xlink:href="#r" transform="matrix(8.15134 0 0 -8.15134 41.512 116.235)"/><use xlink:href="#Y" transform="matrix(8.15134 0 0 -8.15134 46.525 116.235)"/><use xlink:href="#z" transform="matrix(8.15134 0 0 -8.15134 55.85 117.506)"/><use xlink:href="#M" transform="matrix(8.15134 0 0 -8.15134 57.945 116.235)" fill="#0f0"/><use xlink:href="#A" transform="matrix(8.15134 0 0 -8.15134 62.274 116.349)" fill="#0f0"/><use xlink:href="#B" transform="matrix(8.15134 0 0 -8.15134 66.276 117.506)"/><use xlink:href="#C" transform="matrix(8.15134 0 0 -8.15134 118.143 116.349)"/><use xlink:href="#M" transform="matrix(8.15134 0 0 -8.15134 121.86 116.235)"/><use xlink:href="#E" transform="matrix(8.15134 0 0 -8.15134 126.408 116.325)"/><use xlink:href="#O" transform="matrix(8.15134 0 0 -8.15134 128.039 116.3)"/><use xlink:href="#D" transform="matrix(8.15134 0 0 -8.15134 146.86 116.349)"/><use xlink:href="#E" transform="matrix(8.15134 0 0 -8.15134 151.31 116.325)"/><use xlink:href="#N" transform="matrix(8.15134 0 0 -8.15134 153.022 116.414)"/><use xlink:href="#O" transform="matrix(8.15134 0 0 -8.15134 157.017 116.3)"/><use xlink:href="#D" transform="matrix(8.15134 0 0 -8.15134 161.125 116.349)"/><use xlink:href="#q" transform="matrix(8.15134 0 0 -8.15134 38.794 128.156)"/><use xlink:href="#p" transform="matrix(8.15134 0 0 -8.15134 43.489 128.27)"/><use xlink:href="#Y" transform="matrix(8.15134 0 0 -8.15134 49.244 128.156)"/><use xlink:href="#z" transform="matrix(8.15134 0 0 -8.15134 58.569 129.428)"/><use xlink:href="#M" transform="matrix(8.15134 0 0 -8.15134 60.664 128.156)" fill="#0f0"/><use xlink:href="#M" transform="matrix(8.15134 0 0 -8.15134 64.74 128.156)" fill="#0f0"/><use xlink:href="#B" transform="matrix(8.15134 0 0 -8.15134 68.994 129.428)"/><use xlink:href="#C" transform="matrix(8.15134 0 0 -8.15134 118.139 128.27)"/><use xlink:href="#M" transform="matrix(8.15134 0 0 -8.15134 121.856 128.156)"/><use xlink:href="#E" transform="matrix(8.15134 0 0 -8.15134 126.404 128.246)"/><use xlink:href="#P" transform="matrix(8.15134 0 0 -8.15134 128.132 128.27)"/><use xlink:href="#D" transform="matrix(8.15134 0 0 -8.15134 146.864 128.27)"/><use xlink:href="#E" transform="matrix(8.15134 0 0 -8.15134 151.315 128.246)"/><use xlink:href="#N" transform="matrix(8.15134 0 0 -8.15134 153.027 128.335)"/><use xlink:href="#O" transform="matrix(8.15134 0 0 -8.15134 157.02 128.221)"/><use xlink:href="#D" transform="matrix(8.15134 0 0 -8.15134 161.129 128.27)"/><symbol id="aa"><path d="M.664.609V.1C.664.044.65.032.575.025V0h.332v.025C.829.035.819.046.819.117v.442c0 .072.015.087.088.092v.025H.655l-.2-.472-.2.472H.002V.651C.075.645.091.632.091.58V.105C.091.045.078.033 0 .025V0h.234v.025C.152.031.133.05.133.124v.47L.385 0h.027l.252.609z"/></symbol><symbol id="ab"><path d="M.377.139C.337.09.306.072.263.072a.098.098 0 0 0-.089.053.284.284 0 0 0-.03.134h.252C.39.343.375.39.343.428a.169.169 0 0 1-.134.059C.084.487 0 .388 0 .242S.082 0 .206 0c.081 0 .13.032.195.125L.377.139M.139.296c.003.12.021.16.07.16C.237.456.256.44.264.409A.515.515 0 0 0 .273.311V.296H.139z"/></symbol><symbol id="ac"><path d="M.314.001a.687.687 0 0 0 .133.025l.062.008v.023C.463.06.45.073.45.115V.69H.235V.666C.302.661.311.654.311.608V.425C.268.471.238.487.192.487.082.487 0 .38 0 .235 0 .099.076 0 .181 0c.053 0 .086.016.133.066V.001M.311.126C.311.12.301.103.289.09.269.067.248.056.226.056c-.053 0-.078.06-.078.187 0 .129.027.188.085.188.033 0 .064-.024.078-.062V.126z"/></symbol><symbol id="ad"><path d="M.083.091C.083.047.058.027 0 .025V0h.316c.216 0 .36.138.36.345 0 .206-.14.331-.371.331H0V.651C.064.645.083.63.083.584V.091m.162.516c0 .023.02.035.059.035C.376.642.427.609.461.54A.473.473 0 0 0 .502.33.423.423 0 0 0 .45.104.17.17 0 0 0 .303.035C.258.035.245.048.245.093v.514z"/></symbol><symbol id="ae"><path d="M.285.473H.191v.169H.166A.878.878 0 0 0 0 .456V.429h.052V.105C.052.04.095 0 .164 0c.067 0 .107.03.148.112L.287.123C.267.085.251.071.23.071.202.071.191.088.191.128v.301h.094v.044z"/></symbol><use xlink:href="#aa" transform="matrix(8.15134 0 0 -8.15134 29.082 140.077)"/><use xlink:href="#ab" transform="matrix(8.15134 0 0 -8.15134 36.866 140.191)"/><use xlink:href="#ac" transform="matrix(8.15134 0 0 -8.15134 40.485 140.191)"/><use xlink:href="#ad" transform="matrix(8.15134 0 0 -8.15134 44.928 140.077)"/><use xlink:href="#ab" transform="matrix(8.15134 0 0 -8.15134 50.903 140.191)"/><use xlink:href="#ae" transform="matrix(8.15134 0 0 -8.15134 54.481 140.175)"/><symbol id="af"><path d="M.327.69C.136.69 0 .546 0 .345 0 .251.032.16.086.102A.327.327 0 0 1 .321 0c.197 0 .333.14.333.341A.354.354 0 0 1 .57.585.32.32 0 0 1 .327.69m0-.036a.194.194 0 0 0 .128-.05C.509.555.54.461.54.342a.537.537 0 0 0-.033-.18.204.204 0 0 0-.049-.073.191.191 0 0 0-.259-.004C.147.131.114.232.114.343c0 .102.028.199.07.246a.188.188 0 0 0 .143.065z"/></symbol><symbol id="ag"><path d="M.002.39a.15.15 0 0 0 .035.004c.025 0 .034-.016.034-.06v-.25C.071.034.064.027 0 .015V0h.24v.015C.172.018.155.033.155.09v.225c0 .032.043.082.07.082C.231.397.24.392.251.382c.016-.014.027-.02.04-.02.024 0 .039.017.039.045C.33.44.309.46.275.46.233.46.204.437.155.366v.092L.15.46A1.697 1.697 0 0 0 .002.406V.39z"/></symbol><use xlink:href="#s" transform="matrix(8.15134 0 0 -8.15134 60.276 141.52)"/><use xlink:href="#af" transform="matrix(8.15134 0 0 -8.15134 62.877 140.191)"/><use xlink:href="#W" transform="matrix(8.15134 0 0 -8.15134 68.558 140.158)"/><use xlink:href="#ag" transform="matrix(8.15134 0 0 -8.15134 72.601 140.077)"/><use xlink:href="#h" transform="matrix(8.15134 0 0 -8.15134 75.69 140.158)"/><use xlink:href="#y" transform="matrix(8.15134 0 0 -8.15134 78.682 141.52)"/><symbol id="ah"><path d="M.15.337A.24.24 0 0 1 .044.28.148.148 0 0 1 0 .17C0 .068.085 0 .212 0c.139 0 .232.08.232.2 0 .087-.043.149-.15.217C.39.451.43.492.43.556.43.645.354.701.235.701.1.701.011.631.011.526c0-.075.04-.13.139-.189m.12.098C.186.478.14.533.14.589c0 .047.036.083.083.083.056 0 .088-.045.088-.123C.311.502.303.479.27.435M.172.319C.281.246.305.214.305.14.305.073.272.032.218.032.157.032.121.085.121.174c0 .055.011.086.051.145z"/></symbol><symbol id="ai"><path d="M.127.557h.278l.043.127H.126L.029.339a.734.734 0 0 0 .18-.027C.298.284.351.227.351.161c0-.056-.044-.1-.1-.1-.023 0-.05.012-.09.042C.118.135.088.148.062.148.026.148 0 .123 0 .088 0 .035.058 0 .147 0c.165 0 .282.1.282.241 0 .104-.064.184-.173.215a.633.633 0 0 1-.151.02l.022.081z"/></symbol><use xlink:href="#ah" transform="matrix(8.15134 0 0 -8.15134 117.914 140.183)"/><use xlink:href="#ai" transform="matrix(8.15134 0 0 -8.15134 121.941 140.142)"/><use xlink:href="#G" transform="matrix(8.15134 0 0 -8.15134 126.172 140.183)"/><use xlink:href="#ai" transform="matrix(8.15134 0 0 -8.15134 128.055 140.142)"/><use xlink:href="#D" transform="matrix(8.15134 0 0 -8.15134 146.864 140.191)"/><use xlink:href="#E" transform="matrix(8.15134 0 0 -8.15134 151.315 140.167)"/><use xlink:href="#N" transform="matrix(8.15134 0 0 -8.15134 153.027 140.256)"/><use xlink:href="#O" transform="matrix(8.15134 0 0 -8.15134 157.02 140.142)"/><use xlink:href="#x" transform="matrix(8.15134 0 0 -8.15134 161.178 140.077)"/><path stroke-width=".8151237800000001" stroke-miterlimit="10" fill="none" stroke="#000" d="M5.916 145.895h160.336"/></g></svg>